<svg id="Vrstva_1" data-name="Vrstva 1" xmlns="http://www.w3.org/2000/svg" xmlns:xlink="http://www.w3.org/1999/xlink" viewBox="0 0 1921 770.21"><defs><style>.cls-1{fill:url(#Nepojmenovaný_přechod_35);}.cls-2,.cls-3,.cls-4,.cls-5{fill:#f8f9fa;}.cls-3{opacity:0.6;}.cls-12,.cls-4{opacity:0.4;}.cls-5{opacity:0.85;}.cls-6{fill:url(#Nepojmenovaný_přechod_15);}.cls-7{fill:url(#Nepojmenovaný_přechod_15-2);}.cls-8{fill:url(#Nepojmenovaný_přechod_21);}.cls-9{fill:url(#Nepojmenovaný_přechod_18);}.cls-10{fill:url(#Nepojmenovaný_přechod_20);}.cls-11{fill:url(#Nepojmenovaný_přechod_16);}.cls-12{fill:url(#Nepojmenovaný_přechod_18-2);}.cls-13{fill:url(#Nepojmenovaný_přechod_23);}.cls-14{fill:#e6e6e6;}</style><linearGradient id="Nepojmenovaný_přechod_35" x1="0.08" y1="540.71" x2="1920.08" y2="540.71" gradientUnits="userSpaceOnUse"><stop offset="0" stop-color="#19115e"/><stop offset="1" stop-color="#0f0a38"/></linearGradient><linearGradient id="Nepojmenovaný_přechod_15" x1="834" y1="541" x2="1094" y2="541" gradientUnits="userSpaceOnUse"><stop offset="0" stop-color="#f8f9fa"/><stop offset="1" stop-color="#c8d9e8" stop-opacity="0.5"/></linearGradient><linearGradient id="Nepojmenovaný_přechod_15-2" x1="57" y1="369" x2="239" y2="369" xlink:href="#Nepojmenovaný_přechod_15"/><linearGradient id="Nepojmenovaný_přechod_21" x1="973" y1="459.5" x2="1470" y2="459.5" gradientUnits="userSpaceOnUse"><stop offset="0" stop-color="#f8f9fa" stop-opacity="0.8"/><stop offset="0.35" stop-color="#f7f8fa" stop-opacity="0.79"/><stop offset="0.53" stop-color="#f3f6f8" stop-opacity="0.77"/><stop offset="0.67" stop-color="#edf1f6" stop-opacity="0.73"/><stop offset="0.79" stop-color="#e3ebf2" stop-opacity="0.67"/><stop offset="0.9" stop-color="#d8e3ee" stop-opacity="0.6"/><stop offset="0.99" stop-color="#c9dae8" stop-opacity="0.51"/><stop offset="1" stop-color="#c8d9e8" stop-opacity="0.5"/></linearGradient><linearGradient id="Nepojmenovaný_přechod_18" x1="631" y1="435.5" x2="990" y2="435.5" gradientUnits="userSpaceOnUse"><stop offset="0" stop-color="#f8f9fa"/><stop offset="0.21" stop-color="#f7f8fa" stop-opacity="0.99"/><stop offset="0.37" stop-color="#f4f6f8" stop-opacity="0.96"/><stop offset="0.52" stop-color="#eef3f6" stop-opacity="0.9"/><stop offset="0.66" stop-color="#e7eef4" stop-opacity="0.82"/><stop offset="0.79" stop-color="#dde7f0" stop-opacity="0.72"/><stop offset="0.92" stop-color="#d1dfec" stop-opacity="0.6"/><stop offset="1" stop-color="#c8d9e8" stop-opacity="0.5"/></linearGradient><linearGradient id="Nepojmenovaný_přechod_20" x1="1400.92" y1="435.29" x2="1787.92" y2="435.29" gradientTransform="matrix(-1, 0, 0, 1, 3188.92, 0.21)" gradientUnits="userSpaceOnUse"><stop offset="0" stop-color="#f8f9fa" stop-opacity="0.4"/><stop offset="1" stop-color="#c8d9e8" stop-opacity="0.5"/></linearGradient><linearGradient id="Nepojmenovaný_přechod_16" x1="1728" y1="336.5" x2="1921" y2="336.5" gradientUnits="userSpaceOnUse"><stop offset="0" stop-color="#f8f9fa"/><stop offset="0.29" stop-color="#f7f8fa" stop-opacity="0.99"/><stop offset="0.45" stop-color="#f5f7f9" stop-opacity="0.96"/><stop offset="0.58" stop-color="#f0f4f7" stop-opacity="0.92"/><stop offset="0.69" stop-color="#eaf0f5" stop-opacity="0.85"/><stop offset="0.8" stop-color="#e2eaf2" stop-opacity="0.77"/><stop offset="0.89" stop-color="#d7e3ee" stop-opacity="0.66"/><stop offset="0.98" stop-color="#ccdbe9" stop-opacity="0.54"/><stop offset="1" stop-color="#c8d9e8" stop-opacity="0.5"/></linearGradient><linearGradient id="Nepojmenovaný_přechod_18-2" x1="383.08" y1="380.71" x2="692.08" y2="380.71" xlink:href="#Nepojmenovaný_přechod_18"/><linearGradient id="Nepojmenovaný_přechod_23" x1="268.92" y1="422.79" x2="602.92" y2="422.79" gradientTransform="translate(858.79 -12.92) rotate(90)" xlink:href="#Nepojmenovaný_přechod_15"/></defs><title>coluds_bottom_SVG</title><rect class="cls-1" x="0.08" y="311.21" width="1920" height="459"/><circle class="cls-2" cx="1459.58" cy="184.71" r="152.5"/><circle class="cls-2" cx="925.5" cy="168.5" r="123.5"/><circle class="cls-2" cx="1074.5" cy="168.5" r="152.5"/><circle class="cls-2" cx="1425.5" cy="219.5" r="152.5"/><circle class="cls-2" cx="764.5" cy="228.5" r="108.5"/><circle class="cls-3" cx="1594.5" cy="211.5" r="152.5"/><circle class="cls-4" cx="615.5" cy="263.5" r="111.5"/><circle class="cls-4" cx="1350.5" cy="152.5" r="152.5"/><circle class="cls-4" cx="885.5" cy="167.5" r="152.5"/><circle class="cls-2" cx="1824.5" cy="336.5" r="96.5"/><circle class="cls-2" cx="1015" cy="361" r="130"/><circle class="cls-2" cx="810.5" cy="435.5" r="179.5"/><circle class="cls-2" cx="1594.5" cy="435.5" r="193.5"/><circle class="cls-2" cx="1405" cy="361" r="98"/><circle class="cls-2" cx="1221.5" cy="459.5" r="248.5"/><circle class="cls-2" cx="964" cy="541" r="130"/><circle class="cls-2" cx="615.5" cy="389" r="162.5"/><circle class="cls-2" cx="269" cy="377" r="114"/><circle class="cls-2" cx="436" cy="423" r="167"/><circle class="cls-2" cx="98.5" cy="290.5" r="98.5"/><circle class="cls-2" cx="148" cy="369" r="91"/><path class="cls-5" d="M1920.92,290.79c-30.42,34-72.64,103.14-121.85,103.14a166.14,166.14,0,1,1,0-332.28c49.21,0,91.43,19.14,121.85,53.14" transform="translate(0.08 0.21)"/><circle class="cls-4" cx="461.5" cy="368.5" r="154.5"/><circle class="cls-4" cx="236" cy="310" r="101"/><circle class="cls-2" cx="1238.58" cy="167.71" r="152.5"/><circle class="cls-2" cx="925.5" cy="168.5" r="123.5"/><circle class="cls-2" cx="1074.5" cy="168.5" r="152.5"/><circle class="cls-2" cx="1425.5" cy="219.5" r="152.5"/><circle class="cls-2" cx="764.5" cy="228.5" r="108.5"/><circle class="cls-3" cx="1594.5" cy="211.5" r="152.5"/><circle class="cls-4" cx="615.5" cy="263.5" r="111.5"/><circle class="cls-4" cx="1350.5" cy="152.5" r="152.5"/><circle class="cls-4" cx="885.5" cy="167.5" r="152.5"/><circle class="cls-2" cx="1015" cy="361" r="130"/><circle class="cls-2" cx="1405" cy="361" r="98"/><circle class="cls-6" cx="964" cy="541" r="130"/><circle class="cls-2" cx="615.5" cy="389" r="162.5"/><circle class="cls-2" cx="269" cy="377" r="114"/><circle class="cls-2" cx="98.5" cy="290.5" r="98.5"/><circle class="cls-7" cx="148" cy="369" r="91"/><path class="cls-5" d="M-.08,290.79c30.43,34,72.65,103.14,121.86,103.14a166.14,166.14,0,0,0,0-332.28c-49.21,0-91.43,19.14-121.86,53.14" transform="translate(0.08 0.21)"/><circle class="cls-4" cx="236" cy="310" r="101"/><rect class="cls-2" x="0.08" y="0.21" width="1920" height="291"/><circle class="cls-8" cx="1221.5" cy="459.5" r="248.5"/><circle class="cls-9" cx="810.5" cy="435.5" r="179.5"/><circle class="cls-10" cx="1594.5" cy="435.5" r="193.5"/><circle class="cls-11" cx="1824.5" cy="336.5" r="96.5"/><circle class="cls-12" cx="537.58" cy="380.71" r="154.5"/><circle class="cls-13" cx="436" cy="423" r="167"/><path class="cls-14" d="M328.49,685.93a1.5,1.5,0,0,0,0-3,1.5,1.5,0,0,0,0,3Z" transform="translate(0.08 0.21)"/><path class="cls-14" d="M1840,630.23c3.86,0,3.87-6,0-6s-3.87,6,0,6Z" transform="translate(0.08 0.21)"/><path class="cls-14" d="M1858.36,509.18a4.5,4.5,0,1,0-4.5-4.5,4.55,4.55,0,0,0,4.5,4.5Z" transform="translate(0.08 0.21)"/><path class="cls-14" d="M1519.3,701.18a4.5,4.5,0,1,0-4.5-4.5,4.55,4.55,0,0,0,4.5,4.5Z" transform="translate(0.08 0.21)"/><path class="cls-14" d="M639,693a4.5,4.5,0,1,0-4.5-4.5A4.55,4.55,0,0,0,639,693Z" transform="translate(0.08 0.21)"/><path class="cls-14" d="M65,586.8a4.5,4.5,0,1,0-4.5-4.5,4.55,4.55,0,0,0,4.5,4.5Z" transform="translate(0.08 0.21)"/><path class="cls-14" d="M187.55,701.72c3.86,0,3.87-6,0-6s-3.86,6,0,6Z" transform="translate(0.08 0.21)"/><path class="cls-14" d="M212.06,577.13c3.86,0,3.87-6,0-6s-3.86,6,0,6Z" transform="translate(0.08 0.21)"/><path class="cls-14" d="M600.15,603.68c3.86,0,3.87-6,0-6s-3.87,6,0,6Z" transform="translate(0.08 0.21)"/><path class="cls-14" d="M710.45,675.17c3.86,0,3.86-6,0-6s-3.87,6,0,6Z" transform="translate(0.08 0.21)"/><path class="cls-14" d="M1744,718.06c3.86,0,3.87-6,0-6s-3.87,6,0,6Z" transform="translate(0.08 0.21)"/></svg>