<svg id="Vrstva_1" data-name="Vrstva 1" xmlns="http://www.w3.org/2000/svg" xmlns:xlink="http://www.w3.org/1999/xlink" viewBox="0 0 989.84 1028.6"><defs><style>.cls-1{fill:url(#Nepojmenovaný_přechod_42);}.cls-2,.cls-29,.cls-3,.cls-30,.cls-31,.cls-35,.cls-36,.cls-4,.cls-5{fill:none;}.cls-2,.cls-3{stroke:#000;}.cls-11,.cls-12,.cls-13,.cls-14,.cls-15,.cls-16,.cls-2,.cls-25,.cls-26,.cls-27,.cls-28,.cls-29,.cls-3,.cls-30,.cls-31,.cls-35,.cls-36,.cls-37,.cls-4,.cls-5,.cls-6,.cls-7,.cls-9{stroke-miterlimit:10;}.cls-2,.cls-7,.cls-9{stroke-width:9px;}.cls-3{stroke-width:120px;}.cls-4{stroke:#666;stroke-width:60px;}.cls-11,.cls-13,.cls-5{stroke:#f2f2f2;}.cls-5,.cls-6{stroke-width:100px;}.cls-6{fill:#ff0;stroke:#8ff3f8;}.cls-12,.cls-7{fill:#29abe2;stroke:#29abe2;}.cls-8,.cls-9{fill:#22b573;}.cls-9{stroke:#22b573;}.cls-10,.cls-11,.cls-15{fill:#f2f2f2;}.cls-11,.cls-12,.cls-13,.cls-14,.cls-27,.cls-28,.cls-31,.cls-37{stroke-width:0.5px;}.cls-13{fill:#2e3192;}.cls-14,.cls-25{fill:#f15a24;}.cls-14{stroke:#ed1e79;}.cls-15,.cls-25,.cls-26{stroke:#e6e6e6;}.cls-16{fill:#4d4d4d;stroke:#4d4d4d;}.cls-17{fill:#ccc;}.cls-18{fill:#666;}.cls-19{fill:#999;}.cls-20{fill:gray;}.cls-21{fill:#534741;}.cls-22,.cls-28{fill:#1b1464;}.cls-23{fill:#e6e6e6;}.cls-24{fill:#333;}.cls-26{fill:#c1272d;}.cls-27{fill:#fff;}.cls-27,.cls-37{stroke:#333;}.cls-28{stroke:#1b1464;}.cls-29{stroke:url(#Nepojmenovaný_přechod_62);}.cls-30{stroke-width:0.75px;stroke:url(#Nepojmenovaný_přechod_62-2);}.cls-31{stroke:url(#Nepojmenovaný_přechod_62-3);}.cls-32{opacity:0.23;}.cls-33{fill:url(#Nepojmenovaný_přechod);}.cls-34{fill:#ed1e79;}.cls-35{stroke:#ff7bac;}.cls-35,.cls-36{stroke-width:11px;}.cls-36{stroke:#662d91;}.cls-37{opacity:0.9;fill:url(#Nepojmenovaný_přechod_55);}</style><linearGradient id="Nepojmenovaný_přechod_42" x1="222.08" y1="417.99" x2="1428.82" y2="417.99" gradientTransform="matrix(0.75, 0.56, -0.6, 0.8, 301.99, -215.16)" gradientUnits="userSpaceOnUse"><stop offset="0" stop-color="#f8f9fa"/><stop offset="0.08" stop-color="#f4f6f8"/><stop offset="0.16" stop-color="#e8ecf0"/><stop offset="0.23" stop-color="#d5dde3"/><stop offset="0.31" stop-color="#b9c6d2"/><stop offset="0.39" stop-color="#96aabb"/><stop offset="0.46" stop-color="#6a869f"/><stop offset="0.54" stop-color="#385e7f"/><stop offset="0.59" stop-color="#113e66"/><stop offset="0.8" stop-color="#11325c"/><stop offset="0.99" stop-color="#11224f"/></linearGradient><linearGradient id="Nepojmenovaný_přechod_62" x1="856.61" y1="533.53" x2="867.02" y2="533.53" gradientUnits="userSpaceOnUse"><stop offset="0" stop-color="#e6e6e6"/><stop offset="0.12" stop-color="#e7e6e1"/><stop offset="0.26" stop-color="#e8e7d2"/><stop offset="0.42" stop-color="#ebe8ba"/><stop offset="0.58" stop-color="#efe998"/><stop offset="0.76" stop-color="#f4eb6c"/><stop offset="0.93" stop-color="#faed37"/><stop offset="1" stop-color="#fcee21"/></linearGradient><linearGradient id="Nepojmenovaný_přechod_62-2" x1="851.02" y1="536.75" x2="859.59" y2="536.75" xlink:href="#Nepojmenovaný_přechod_62"/><linearGradient id="Nepojmenovaný_přechod_62-3" x1="845.11" y1="540.69" x2="851.79" y2="540.69" xlink:href="#Nepojmenovaný_přechod_62"/><linearGradient id="Nepojmenovaný_přechod" x1="258.13" y1="827.19" x2="985.31" y2="827.19" gradientUnits="userSpaceOnUse"><stop offset="0" stop-color="#fff"/><stop offset="1"/></linearGradient><linearGradient id="Nepojmenovaný_přechod_55" x1="805.41" y1="1043.27" x2="843.41" y2="1043.27" gradientUnits="userSpaceOnUse"><stop offset="0" stop-color="#89f9fa"/><stop offset="0.23" stop-color="#85f6fa"/><stop offset="0.46" stop-color="#79ebfa"/><stop offset="0.69" stop-color="#66dafa"/><stop offset="0.91" stop-color="#4bc2f9"/><stop offset="0.99" stop-color="#3eb7f9"/></linearGradient></defs><title>earth-SVG</title><path class="cls-1" d="M1113.15,942.08c-231,294.41-558.7,237.9-675-42.42-19.17-46.21-53.51-83.33-87.62-118.12-38.28-39-78.36-76.54-111.08-120.79-35.65-48.24-60.54-103.9-67.93-165.39-4.46-37.14-2.86-75.19,2.94-112.71,5.27-34.16,9.83-68.94,24.3-101.19a229.66,229.66,0,0,1,52.41-73.62c23.22-21.68,55.46-34.77,84.24-46,1.81-.71,3.63-1.41,5.44-2.1,53.55-20.4,109.59-32.92,165.46-40.86,58.61-8.33,117.87-11.53,176.3-8.19,49.73,2.84,100.59,9.87,146.18,28.84,31.79,13.23,65.12,34.63,75.09,70.23,9.32,33.28-5.34,68.72-23.94,97.5C730.14,539,1323.61,673.88,1113.15,942.08Z" transform="translate(-168.99 -109.38)"/><path class="cls-2" d="M261.91,641.27c0-198.82,161.18-360,360-360s360,161.18,360,360" transform="translate(-168.99 -109.38)"/><path class="cls-3" d="M326.41,641.27c0-163.48,132.52-296,296-296s296,132.52,296,296" transform="translate(-168.99 -109.38)"/><path class="cls-4" d="M357.41,641.12c0-144.54,118.42-261.7,264.5-261.7s264.5,117.16,264.5,261.7" transform="translate(-168.99 -109.38)"/><path class="cls-5" d="M431.77,641.26c0-103.82,85.07-188,190-188s190,84.17,190,188" transform="translate(-168.99 -109.38)"/><path class="cls-6" d="M532.27,641.44c0-49.45,40.52-89.54,90.5-89.54s90.5,40.09,90.5,89.54" transform="translate(-168.99 -109.38)"/><path class="cls-7" d="M981.91,641.27c0,198.82-161.18,360-360,360s-360-161.18-360-360" transform="translate(-168.99 -109.38)"/><rect class="cls-8" x="479.91" y="586.88" width="92" height="171" rx="39.28"/><path class="cls-8" d="M480.47,640.55v38.53a39.4,39.4,0,0,1-39.28,39.29h0a39.4,39.4,0,0,1-39.28-39.29V640.55" transform="translate(-168.99 -109.38)"/><rect class="cls-8" x="619.91" y="531.88" width="56" height="86"/><rect class="cls-8" x="362.91" y="732.88" width="69" height="126"/><path class="cls-9" d="M881.41,890.72V865.89a39.4,39.4,0,0,0-39.28-39.28H828.69a39.4,39.4,0,0,0-39.28,39.28v92A361,361,0,0,0,881.41,890.72Z" transform="translate(-168.99 -109.38)"/><path class="cls-9" d="M402.13,757.92H367.69a39.4,39.4,0,0,0-39.28,39.28v51.63a361.59,361.59,0,0,0,107.51,99.78,38.89,38.89,0,0,0,5.49-19.94V797.2A39.4,39.4,0,0,0,402.13,757.92Z" transform="translate(-168.99 -109.38)"/><circle class="cls-10" cx="319.91" cy="586.88" r="31"/><circle class="cls-10" cx="467.41" cy="691.38" r="22.5"/><circle class="cls-10" cx="319.91" cy="617.88" r="31"/><circle class="cls-10" cx="467.41" cy="677.38" r="22.5"/><circle class="cls-10" cx="687.41" cy="570.38" r="22.5"/><circle class="cls-10" cx="686.91" cy="603.88" r="29"/><circle class="cls-10" cx="604.91" cy="806.88" r="31"/><circle class="cls-10" cx="604.91" cy="775.88" r="38"/><path class="cls-10" d="M329.91,805.27a37.88,37.88,0,0,0-27,11.21,360.05,360.05,0,0,0,43.14,61.17,38,38,0,0,0-16.19-72.38Z" transform="translate(-168.99 -109.38)"/><circle class="cls-10" cx="161.13" cy="682.51" r="27.79"/><path class="cls-10" d="M712.82,323.46a1.5,1.5,0,0,0,0-3,1.5,1.5,0,0,0,0,3Z" transform="translate(-168.99 -109.38)"/><path class="cls-10" d="M850.75,387.21a1.5,1.5,0,0,0,0-3,1.5,1.5,0,0,0,0,3Z" transform="translate(-168.99 -109.38)"/><path class="cls-10" d="M686.13,326a1.5,1.5,0,0,0,0-3,1.5,1.5,0,0,0,0,3Z" transform="translate(-168.99 -109.38)"/><path class="cls-10" d="M895.47,469.18a1.5,1.5,0,0,0,0-3,1.5,1.5,0,0,0,0,3Z" transform="translate(-168.99 -109.38)"/><path class="cls-10" d="M965.74,593a.75.75,0,0,0,0-1.5.75.75,0,0,0,0,1.5Z" transform="translate(-168.99 -109.38)"/><path class="cls-10" d="M920,538.7a.75.75,0,0,0,0-1.5.75.75,0,0,0,0,1.5Z" transform="translate(-168.99 -109.38)"/><path class="cls-10" d="M303,528.13a.75.75,0,0,0,0-1.5.75.75,0,0,0,0,1.5Z" transform="translate(-168.99 -109.38)"/><path class="cls-10" d="M328.1,510.38a.75.75,0,0,0,0-1.5.75.75,0,0,0,0,1.5Z" transform="translate(-168.99 -109.38)"/><path class="cls-10" d="M311,554.67a.75.75,0,0,0,0-1.5.75.75,0,0,0,0,1.5Z" transform="translate(-168.99 -109.38)"/><path class="cls-10" d="M694.73,309.7c3.86,0,3.87-6,0-6s-3.86,6,0,6Z" transform="translate(-168.99 -109.38)"/><path class="cls-10" d="M938.05,512.21c3.87,0,3.87-6,0-6s-3.86,6,0,6Z" transform="translate(-168.99 -109.38)"/><rect class="cls-11" x="488.93" y="388.39" width="18" height="31.5" rx="9" transform="translate(-289.47 124.96) rotate(-23.71)"/><rect class="cls-11" x="506.06" y="394.45" width="16" height="5.76" transform="translate(-285.38 130.87) rotate(-23.71)"/><circle class="cls-12" cx="327.29" cy="289.75" r="3"/><rect class="cls-11" x="474.62" y="408.38" width="16" height="5.76" transform="translate(-293.63 119.4) rotate(-23.71)"/><circle class="cls-11" cx="280.52" cy="323.82" r="4.43"/><path class="cls-13" d="M445.08,433.87a4,4,0,0,1,8,0" transform="translate(-168.99 -109.38)"/><rect class="cls-11" x="277.86" y="328.25" width="5.32" height="8.87"/><rect class="cls-11" x="442.42" y="438.52" width="5.32" height="1.77" rx="0.89" transform="translate(-3.35 -229.52) rotate(18.83)"/><rect class="cls-11" x="451.28" y="438.11" width="5.32" height="1.77" rx="0.89" transform="translate(867.25 573.97) rotate(158.72)"/><rect class="cls-11" x="444.19" y="446.89" width="5.32" height="1.77" rx="0.89" transform="matrix(-0.5, 0.87, -0.87, -0.5, 889.06, 175.29)"/><rect class="cls-11" x="449.51" y="446.89" width="5.32" height="1.77" rx="0.89" transform="translate(497.91 -260.65) rotate(65)"/><circle class="cls-14" cx="280.58" cy="330.9" r="1.72"/><path class="cls-15" d="M674.41,306.27a15.5,15.5,0,0,1-31,0" transform="translate(-168.99 -109.38)"/><path class="cls-16" d="M643.41,306.27a15.5,15.5,0,0,1,31,0" transform="translate(-168.99 -109.38)"/><circle class="cls-17" cx="480.91" cy="201.88" r="1.5"/><circle class="cls-17" cx="492.05" cy="200.69" r="2.2"/><circle class="cls-17" cx="487.67" cy="204.76" r="0.97"/><path class="cls-18" d="M849.73,481.5" transform="translate(-168.99 -109.38)"/><path class="cls-19" d="M849.73,483a1.5,1.5,0,0,0,0-3,1.5,1.5,0,0,0,0,3Z" transform="translate(-168.99 -109.38)"/><path class="cls-20" d="M848.05,505.79a1.5,1.5,0,0,0,0-3,1.5,1.5,0,0,0,0,3Z" transform="translate(-168.99 -109.38)"/><path class="cls-21" d="M859.86,500.73a1.5,1.5,0,0,0,0-3,1.5,1.5,0,0,0,0,3Z" transform="translate(-168.99 -109.38)"/><path class="cls-22" d="M876.43,593.81a1.5,1.5,0,0,0,0-3,1.5,1.5,0,0,0,0,3Z" transform="translate(-168.99 -109.38)"/><path class="cls-23" d="M891.94,582.6a1.5,1.5,0,0,0,0-3,1.5,1.5,0,0,0,0,3Z" transform="translate(-168.99 -109.38)"/><path class="cls-17" d="M862.39,564a1.5,1.5,0,0,0,0-3,1.5,1.5,0,0,0,0,3Z" transform="translate(-168.99 -109.38)"/><path class="cls-23" d="M429.25,439.46a1.5,1.5,0,0,0,0-3,1.5,1.5,0,0,0,0,3Z" transform="translate(-168.99 -109.38)"/><path class="cls-20" d="M520.22,412.71a1.5,1.5,0,0,0,0-3,1.5,1.5,0,0,0,0,3Z" transform="translate(-168.99 -109.38)"/><path d="M456.4,410.41a1.5,1.5,0,0,0,0-3,1.5,1.5,0,0,0,0,3Z" transform="translate(-168.99 -109.38)"/><path class="cls-23" d="M516.33,385.09a1.5,1.5,0,0,0,0-3,1.5,1.5,0,0,0,0,3Z" transform="translate(-168.99 -109.38)"/><path class="cls-24" d="M479.19,440a1.5,1.5,0,0,0,0-3,1.5,1.5,0,0,0,0,3Z" transform="translate(-168.99 -109.38)"/><circle class="cls-25" cx="142.41" cy="474.38" r="13"/><ellipse class="cls-26" cx="118.58" cy="448.76" rx="4.83" ry="4.63"/><circle class="cls-25" cx="54.41" cy="453.38" r="8"/><circle class="cls-25" cx="45.91" cy="418.88" r="4.5"/><circle class="cls-25" cx="76.91" cy="438.88" r="4.5"/><rect class="cls-27" x="869.01" y="519.5" width="14" height="14" rx="3.85" transform="translate(784.47 -601.99) rotate(63.34)"/><rect class="cls-27" x="876.84" y="535.12" width="10" height="6" transform="translate(798.07 -600.8) rotate(63.34)"/><rect class="cls-28" x="872.73" y="522.33" width="7" height="7" rx="2.53" transform="translate(783.99 -602.56) rotate(63.34)"/><rect class="cls-27" x="865.17" y="511.89" width="10" height="6" transform="translate(770.87 -603.19) rotate(63.34)"/><path class="cls-24" d="M869.61,515a1.5,1.5,0,0,0,0-3,1.5,1.5,0,0,0,0,3Z" transform="translate(-168.99 -109.38)"/><path class="cls-29" d="M863.19,539.65a6.5,6.5,0,1,0-6.33-11.35" transform="translate(-168.99 -109.38)"/><path class="cls-30" d="M856.45,541.82a5.39,5.39,0,0,0-5.25-9.41" transform="translate(-168.99 -109.38)"/><path class="cls-31" d="M849.37,544.68a4.24,4.24,0,0,0-4.14-7.41" transform="translate(-168.99 -109.38)"/><g class="cls-32"><path class="cls-33" d="M315.66,842a361.67,361.67,0,0,1-57.53-196.24c6.31,0,195.32,180.62,371.78,180.5,188.32-.13,364.36-181,355-181,.24,200.91-162.56,363.85-363.41,363.85C493.15,1009.12,380.3,942.53,315.66,842Z" transform="translate(-168.99 -109.38)"/></g><rect class="cls-34" x="902.91" y="677.23" width="69" height="23" rx="11.5"/><rect class="cls-34" x="1071.91" y="787.27" width="69" height="23" rx="11.5" transform="translate(138.65 1795.79) rotate(-90)"/><rect class="cls-34" x="801.13" y="242.01" width="55.18" height="18.39" rx="9.2" transform="translate(251.36 -621.8) rotate(45)"/><rect class="cls-34" x="800.59" y="242.12" width="55.18" height="18.39" rx="9.2" transform="translate(-104.13 549.84) rotate(-45)"/><polygon class="cls-35" points="868.39 797.13 849.48 793.54 862.05 778.96 874.62 764.37 880.97 782.55 887.31 800.73 868.39 797.13"/><circle class="cls-36" cx="849.41" cy="710.38" r="22"/><path class="cls-37" d="M843.41,1052.77a19,19,0,0,0-38,0" transform="translate(-168.99 -109.38)"/><path class="cls-23" d="M811.41,1045.77" transform="translate(-168.99 -109.38)"/><path class="cls-23" d="M807,1033.62" transform="translate(-168.99 -109.38)"/><path class="cls-23" d="M838.92,181.53a1.5,1.5,0,0,0,0-3,1.5,1.5,0,0,0,0,3Z" transform="translate(-168.99 -109.38)"/><path class="cls-23" d="M865.37,230.82a4.5,4.5,0,1,0-4.5-4.5,4.55,4.55,0,0,0,4.5,4.5Z" transform="translate(-168.99 -109.38)"/><path class="cls-23" d="M804.2,206a4.5,4.5,0,1,0-4.5-4.5,4.55,4.55,0,0,0,4.5,4.5Z" transform="translate(-168.99 -109.38)"/><path class="cls-23" d="M215.62,485.44a4.5,4.5,0,1,0-4.5-4.5,4.56,4.56,0,0,0,4.5,4.5Z" transform="translate(-168.99 -109.38)"/><path class="cls-23" d="M313.16,260.58a4.5,4.5,0,1,0-4.5-4.5,4.55,4.55,0,0,0,4.5,4.5Z" transform="translate(-168.99 -109.38)"/><path class="cls-23" d="M629,164.69a4.5,4.5,0,1,0-4.5-4.5,4.55,4.55,0,0,0,4.5,4.5Z" transform="translate(-168.99 -109.38)"/><path class="cls-23" d="M470.23,164.69a4.5,4.5,0,1,0-4.5-4.5,4.55,4.55,0,0,0,4.5,4.5Z" transform="translate(-168.99 -109.38)"/><path class="cls-23" d="M452,260.58a4.5,4.5,0,1,0-4.5-4.5,4.55,4.55,0,0,0,4.5,4.5Z" transform="translate(-168.99 -109.38)"/><path class="cls-23" d="M1045.59,685.49a4.5,4.5,0,1,0-4.5-4.5,4.55,4.55,0,0,0,4.5,4.5Z" transform="translate(-168.99 -109.38)"/><path class="cls-23" d="M1019.13,741.7a4.5,4.5,0,1,0-4.5-4.5,4.55,4.55,0,0,0,4.5,4.5Z" transform="translate(-168.99 -109.38)"/><path class="cls-23" d="M1105.11,866a1.5,1.5,0,0,0,0-3,1.5,1.5,0,0,0,0,3Z" transform="translate(-168.99 -109.38)"/><path class="cls-23" d="M1095.19,728.78a1.5,1.5,0,0,0,0-3,1.5,1.5,0,0,0,0,3Z" transform="translate(-168.99 -109.38)"/><path class="cls-23" d="M969.53,900.73a1.5,1.5,0,0,0,0-3,1.5,1.5,0,0,0,0,3Z" transform="translate(-168.99 -109.38)"/><path class="cls-23" d="M1034,930.33c3.86,0,3.87-6,0-6s-3.86,6,0,6Z" transform="translate(-168.99 -109.38)"/><path class="cls-23" d="M774,1084.67" transform="translate(-168.99 -109.38)"/><path class="cls-10" d="M849.5,1053c0,9.39-11.42,17-25.5,17s-25.5-7.61-25.5-17" transform="translate(-168.99 -109.38)"/><rect class="cls-10" x="801.37" y="1067.26" width="19.11" height="3.47" rx="1" transform="translate(-687.38 777.13) rotate(-45)"/><rect class="cls-10" x="827.14" y="1067.52" width="19.11" height="3.47" rx="1" transform="translate(503.26 2307.58) rotate(-135)"/><rect class="cls-10" x="814.36" y="1063.56" width="19.11" height="3.47" rx="1" transform="translate(-410.38 1779.83) rotate(-90)"/><path class="cls-10" d="M699.83,1058.09a1.5,1.5,0,0,0,0-3,1.5,1.5,0,0,0,0,3Z" transform="translate(-168.99 -109.38)"/><path class="cls-10" d="M755.37,1059.35a4.5,4.5,0,1,0-4.5-4.5,4.56,4.56,0,0,0,4.5,4.5Z" transform="translate(-168.99 -109.38)"/><path class="cls-10" d="M732.8,1078.68c3.86,0,3.87-6,0-6s-3.86,6,0,6Z" transform="translate(-168.99 -109.38)"/></svg>