<svg id="Vrstva_1" data-name="Vrstva 1" xmlns="http://www.w3.org/2000/svg" viewBox="0 0 34.39 34.39"><defs><style>.cls-1{fill:none;stroke:#000;stroke-miterlimit:10;stroke-width:0.25px;}</style></defs><title>500px_icon</title><path d="M22.39,15.6a3,3,0,1,0,3,3,3,3,0,0,0-3-3m0,5.34a2.35,2.35,0,1,1,2.36-2.35,2.35,2.35,0,0,1-2.36,2.35m6.47-5.34a3,3,0,1,0,3,3,3,3,0,0,0-3-3m0,5.34a2.35,2.35,0,1,1,2.36-2.35,2.35,2.35,0,0,1-2.36,2.35M17.25,17.39a2.08,2.08,0,0,0-1.59.43V16.23h2.68c.1,0,.16,0,.16-.29s-.1-.28-.18-.28h-3a.27.27,0,0,0-.27.29v2.61c0,.13.09.18.25.21a.28.28,0,0,0,.29-.06h0A1.73,1.73,0,0,1,17.11,18a1.54,1.54,0,0,1,1.34,1.33A1.51,1.51,0,0,1,17.12,21H17a1.53,1.53,0,0,1-1.42-1c0-.09-.1-.15-.35-.06s-.24.18-.21.27a2.1,2.1,0,1,0,2.28-2.8M33.9,15.63a1.59,1.59,0,0,0-1.44,1.61V19.9c0,.15.12.19.3.19s.29,0,.29-.19V17.23a1,1,0,0,1,.87-1,1,1,0,0,1,.76.25,1,1,0,0,1,.32.72,1.15,1.15,0,0,1-.22.59,1,1,0,0,1-.84.39h0c-.12,0-.22,0-.24.28s0,.27.15.29a1.43,1.43,0,0,0,.87-.16,1.55,1.55,0,0,0-.81-2.94m3.92,1.56L38.9,16.1s.13-.13,0-.32a.37.37,0,0,0-.22-.13h0a.23.23,0,0,0-.12.06L37.42,16.8l-1.09-1.09c-.08-.09-.19-.07-.32.06s-.15.24-.07.33L37,17.19,36,18.26h0a.19.19,0,0,0-.07.13.37.37,0,0,0,.13.22.31.31,0,0,0,.2.11.23.23,0,0,0,.14-.07l1.07-1.07,1.09,1.09a.16.16,0,0,0,.11,0h0a.31.31,0,0,0,.22-.12c.12-.13.14-.24.06-.32Z" transform="translate(-8.68 -1.4)"/><circle class="cls-1" cx="17.19" cy="17.19" r="17.07"/></svg>