<svg id="Vrstva_1" data-name="Vrstva 1" xmlns="http://www.w3.org/2000/svg" viewBox="0 0 241 241"><defs><style>.cls-1{fill:#35f287;}</style></defs><title>click-logo</title><path class="cls-1" d="M150.4,29.68a120.5,120.5,0,1,0,120.5,120.5A120.5,120.5,0,0,0,150.4,29.68ZM88.69,168.81a23,23,0,0,1-13.58,4.06A21.14,21.14,0,0,1,56,161.57a23.59,23.59,0,0,1-2.77-11.35A24.74,24.74,0,0,1,56,138.27a20.24,20.24,0,0,1,7.8-8.13,22.39,22.39,0,0,1,11.4-2.89,21.36,21.36,0,0,1,7.94,1.44,22.61,22.61,0,0,1,6.71,4.16V128H95.5v14.15H89.76a16.49,16.49,0,0,0-5.94-6.63,15.33,15.33,0,0,0-8.3-2.37,13.69,13.69,0,0,0-7.79,2.3,15.82,15.82,0,0,0-5.35,6.15,18.44,18.44,0,0,0-1.91,8.28,18,18,0,0,0,2,8.44A16.12,16.12,0,0,0,68,164.49a13.93,13.93,0,0,0,7.82,2.31,14.67,14.67,0,0,0,9.37-3.23,18.39,18.39,0,0,0,6-9.19l5.62,3A21.06,21.06,0,0,1,88.69,168.81Zm44.89,3.33H101.23v-5.51h5.69V133.49h-5.69V128h18v5.5h-5.69v33.14H128.1V153h5.48Zm20.75-38.65h-4.8v33.14h4.8v5.51H138.07v-5.51h4.78V133.49h-4.78V128h16.26Zm41,35.32a23,23,0,0,1-13.58,4.06,21.14,21.14,0,0,1-19.15-11.3,23.71,23.71,0,0,1-2.77-11.35,24.85,24.85,0,0,1,2.83-11.95,20.26,20.26,0,0,1,7.81-8.13,22.35,22.35,0,0,1,11.39-2.89,21.32,21.32,0,0,1,7.94,1.44,22.48,22.48,0,0,1,6.71,4.16V128h5.63v14.15h-5.74a16.52,16.52,0,0,0-5.95-6.63,15.32,15.32,0,0,0-8.29-2.37,13.72,13.72,0,0,0-7.8,2.3,15.8,15.8,0,0,0-5.34,6.15,18.32,18.32,0,0,0-1.92,8.28,18,18,0,0,0,2,8.44,16,16,0,0,0,5.52,6.18,13.93,13.93,0,0,0,7.82,2.31,14.7,14.7,0,0,0,9.38-3.23,18.44,18.44,0,0,0,5.94-9.19l5.63,3A21.16,21.16,0,0,1,195.38,168.81Zm30,3.33H208.09v-5.51h5.51V133.49h-5.51V128H226v5.5h-5.68v33.14h5.1Zm4,0v-5.51h4.86L221,149.05l13.68-15.56h-5.09V128h17.34v5.5h-4.69l-13.68,15.35,14.06,17.79h4.72v5.51Z" transform="translate(-29.9 -29.68)"/></svg>