<svg id="Vrstva_1" data-name="Vrstva 1" xmlns="http://www.w3.org/2000/svg" viewBox="0 0 1920 1080"><defs><style>.cls-1,.cls-14,.cls-2,.cls-3,.cls-4,.cls-5,.cls-6,.cls-7{fill:none;}.cls-1,.cls-10,.cls-11,.cls-14,.cls-2,.cls-3,.cls-8,.cls-9{stroke:#0a0909;}.cls-1,.cls-10,.cls-11,.cls-12,.cls-14,.cls-2,.cls-3,.cls-4,.cls-5,.cls-6,.cls-7,.cls-8,.cls-9{stroke-miterlimit:10;}.cls-1{stroke-width:6px;}.cls-2,.cls-6{stroke-width:2px;}.cls-10,.cls-11,.cls-3,.cls-4,.cls-8,.cls-9{stroke-width:0.5px;}.cls-4{stroke:#000;}.cls-5,.cls-6,.cls-7{stroke:#6b6767;}.cls-14,.cls-5{stroke-width:3px;}.cls-8{fill:#4f4a4a;}.cls-9{fill:#878282;}.cls-11{fill:#c4b7b7;}.cls-12{font-size:64.8px;fill:#f4f4f4;stroke:#020202;font-family:GillSansMT-Bold, Gill Sans MT;font-weight:700;}.cls-13{letter-spacing:-0.12em;}.cls-15{fill:#0a0909;}</style></defs><title>please-stand-by-full</title><circle class="cls-1" cx="960.75" cy="540.9" r="351.9"/><circle class="cls-2" cx="960.75" cy="540.9" r="140.4"/><circle class="cls-3" cx="960.75" cy="540.9" r="18.9"/><path d="M953.53,536.45h0l-2.44,1.32-.37-1.45,3.07-1.64h1.62v14h-1.84Z" transform="translate(0.5)"/><path d="M969.81,541.55c0,4.77-1.77,7.4-4.88,7.4-2.74,0-4.59-2.57-4.64-7.21s2-7.3,4.88-7.3S969.81,537.08,969.81,541.55Zm-7.62.21c0,3.65,1.13,5.72,2.85,5.72,2,0,2.87-2.26,2.87-5.85s-.88-5.72-2.85-5.72C963.4,535.91,962.19,537.94,962.19,541.76Z" transform="translate(0.5)"/><path d="M1003.61,471.74l-.83.83-3.14-3.14.83-.83Z" transform="translate(0.5)"/><path d="M1004.55,480.39l.68-.69,1.73,0c4.12.11,6.15,0,7.41-1.24a2.09,2.09,0,0,0,0-3.26,3.94,3.94,0,0,0-2.45-1.05l.43-1.15a5.18,5.18,0,0,1,3.18,1.5,3.3,3.3,0,0,1,.13,4.94c-1.53,1.52-3.87,1.65-7.29,1.59l-1.28-.05,0,0,3.71,3.72-.92.93Z" transform="translate(0.5)"/><path d="M1024.63,492c-2.81,2.81-5.41,3.32-7.24,1.49-1.62-1.62-1.2-4.22,1.51-7s5.5-3.11,7.18-1.43S1027.26,489.39,1024.63,492Zm-4.62-4.36c-2.15,2.15-2.71,4-1.69,5s3,.35,5.14-1.76,2.85-3.89,1.69-5.05C1024.17,484.92,1022.26,485.41,1020,487.66Z" transform="translate(0.5)"/><path d="M1032.08,500.21l-.83.83-3.14-3.14.83-.83Z" transform="translate(0.5)"/><path d="M899.05,574.34l-.82.83L895.08,572l.83-.82Z" transform="translate(0.5)"/><path d="M900,583l.69-.69,1.73,0c4.12.11,6.14,0,7.4-1.24a2.09,2.09,0,0,0,0-3.26,3.94,3.94,0,0,0-2.45-1.05l.43-1.15a5.14,5.14,0,0,1,3.18,1.5,3.3,3.3,0,0,1,.13,4.94c-1.53,1.52-3.87,1.65-7.29,1.59l-1.27,0,0,0,3.72,3.72-.93.92Z" transform="translate(0.5)"/><path d="M920.07,594.62c-2.81,2.81-5.4,3.32-7.24,1.49-1.61-1.62-1.19-4.22,1.52-7s5.49-3.11,7.17-1.43S922.71,592,920.07,594.62Zm-4.62-4.36c-2.15,2.15-2.7,4-1.69,5s3,.35,5.14-1.76,2.85-3.89,1.69-5C919.61,587.52,917.71,588,915.45,590.26Z" transform="translate(0.5)"/><path d="M927.52,602.81l-.82.83-3.15-3.15.83-.82Z" transform="translate(0.5)"/><polygon class="cls-4" points="953.69 522.38 942.23 533.84 844.65 460.8 880.65 424.8 953.69 522.38"/><polygon class="cls-4" points="967.51 559.32 978.96 547.87 1076.55 620.91 1040.55 656.91 967.51 559.32"/><line class="cls-3" x1="949.05" y1="520.2" x2="940.05" y2="529.2"/><line class="cls-3" x1="981.45" y1="552.6" x2="972.45" y2="561.6"/><line class="cls-3" x1="986.85" y1="558" x2="977.85" y2="567"/><line class="cls-3" x1="992.25" y1="563.4" x2="983.25" y2="572.4"/><line class="cls-3" x1="997.65" y1="568.8" x2="988.65" y2="577.8"/><line class="cls-3" x1="1003.05" y1="574.2" x2="994.05" y2="583.2"/><line class="cls-3" x1="1008.45" y1="579.6" x2="999.45" y2="588.6"/><line class="cls-3" x1="1013.85" y1="585" x2="1004.85" y2="594"/><line class="cls-3" x1="1019.25" y1="590.4" x2="1010.25" y2="599.4"/><line class="cls-3" x1="1024.65" y1="595.8" x2="1015.65" y2="604.8"/><line class="cls-3" x1="1030.05" y1="601.2" x2="1021.05" y2="610.2"/><line class="cls-3" x1="1035.45" y1="606.6" x2="1026.45" y2="615.6"/><line class="cls-3" x1="1040.85" y1="612" x2="1031.85" y2="621"/><line class="cls-3" x1="1046.25" y1="617.4" x2="1037.25" y2="626.4"/><line class="cls-3" x1="1051.65" y1="622.8" x2="1042.65" y2="631.8"/><line class="cls-3" x1="1057.05" y1="628.2" x2="1048.05" y2="637.2"/><line class="cls-3" x1="943.65" y1="514.8" x2="934.65" y2="523.8"/><line class="cls-3" x1="938.25" y1="509.4" x2="929.25" y2="518.4"/><line class="cls-3" x1="932.85" y1="504" x2="923.85" y2="513"/><line class="cls-3" x1="927.45" y1="498.6" x2="918.45" y2="507.6"/><line class="cls-3" x1="922.05" y1="493.2" x2="913.05" y2="502.2"/><line class="cls-3" x1="916.65" y1="487.8" x2="907.65" y2="496.8"/><line class="cls-3" x1="911.25" y1="482.4" x2="902.25" y2="491.4"/><line class="cls-3" x1="905.85" y1="477" x2="896.85" y2="486"/><line class="cls-3" x1="900.45" y1="471.6" x2="891.45" y2="480.6"/><line class="cls-3" x1="895.05" y1="466.2" x2="886.05" y2="475.2"/><line class="cls-3" x1="889.65" y1="460.8" x2="880.65" y2="469.8"/><line class="cls-3" x1="884.25" y1="455.4" x2="875.25" y2="464.4"/><line class="cls-3" x1="878.85" y1="450" x2="869.85" y2="459"/><line class="cls-3" x1="873.45" y1="444.6" x2="864.45" y2="453.6"/><line class="cls-5" x1="1191.15" y1="468.9" x2="1191.15" y2="479.7"/><line class="cls-5" x1="1191.15" y1="483.3" x2="1191.15" y2="494.1"/><line class="cls-6" x1="1191.15" y1="497.7" x2="1191.15" y2="508.5"/><line class="cls-6" x1="1191.15" y1="512.1" x2="1191.15" y2="522.9"/><line class="cls-7" x1="1191.15" y1="526.5" x2="1191.15" y2="537.3"/><line class="cls-7" x1="1191.15" y1="540.9" x2="1191.15" y2="551.7"/><line class="cls-7" x1="1191.15" y1="555.3" x2="1191.15" y2="566.1"/><line class="cls-7" x1="1191.15" y1="569.7" x2="1191.15" y2="580.5"/><line class="cls-7" x1="1191.15" y1="584.1" x2="1191.15" y2="594.9"/><line class="cls-7" x1="1191.15" y1="598.5" x2="1191.15" y2="609.3"/><path class="cls-3" d="M975,505.2a18.9,18.9,0,0,1,18.9,18.9" transform="translate(0.5)"/><path class="cls-3" d="M1025.39,456.6a18.9,18.9,0,0,1,18.9,18.9" transform="translate(0.5)"/><path class="cls-3" d="M944.68,572.85a18.9,18.9,0,0,1-18.9-18.9" transform="translate(0.5)"/><path class="cls-3" d="M898.69,620.64a18.9,18.9,0,0,1-18.9-18.9" transform="translate(0.5)"/><path class="cls-7" d="M175.82,1072.7" transform="translate(0.5)"/><path class="cls-7" d="M283.41,962.09" transform="translate(0.5)"/><path class="cls-7" d="M118.24,1070.8" transform="translate(0.5)"/><path class="cls-2" d="M245.36,835.86a140.4,140.4,0,0,1,0,198.56" transform="translate(0.5)"/><path class="cls-2" d="M46.8,835.86a140.4,140.4,0,0,1,198.56,0" transform="translate(0.5)"/><path class="cls-2" d="M46.8,1034.42a140.4,140.4,0,0,1,0-198.56" transform="translate(0.5)"/><path class="cls-2" d="M245.36,1034.42a140.4,140.4,0,0,1-198.56,0" transform="translate(0.5)"/><circle class="cls-3" cx="146.58" cy="935.14" r="18.9"/><path d="M100.87,997.79l.71-.72,2.72,2.72-.71.71Z" transform="translate(0.5)"/><path d="M100.06,990.31l-.6.59-1.49,0c-3.57-.09-5.32,0-6.41,1.08a1.82,1.82,0,0,0,0,2.82,3.53,3.53,0,0,0,2.13.91l-.38,1a4.45,4.45,0,0,1-2.75-1.3,2.85,2.85,0,0,1-.11-4.27c1.32-1.32,3.35-1.43,6.31-1.38l1.1,0,0,0-3.21-3.22.8-.8Z" transform="translate(0.5)"/><path d="M82.68,980.24c2.44-2.43,4.68-2.87,6.27-1.29,1.39,1.4,1,3.66-1.31,6s-4.76,2.68-6.21,1.23S80.41,982.52,82.68,980.24Zm4,3.78c1.86-1.86,2.34-3.49,1.46-4.37s-2.62-.31-4.44,1.52-2.47,3.36-1.47,4.36C83.08,986.38,84.73,986,86.68,984Z" transform="translate(0.5)"/><path d="M76.24,973.16l.71-.72,2.72,2.72-.71.72Z" transform="translate(0.5)"/><polyline class="cls-4" points="172.04 796.4 154.68 917.05 147.65 916.2 138.48 917.05 121.13 796.4"/><line class="cls-4" x1="121.13" y1="796.4" x2="172.04" y2="796.4"/><polygon class="cls-4" points="138.34 952.95 145.85 954 154.53 952.95 171.89 1073.6 120.98 1073.6 138.34 952.95"/><line class="cls-3" x1="152.95" y1="912.23" x2="140.22" y2="912.23"/><line class="cls-3" x1="152.95" y1="958.05" x2="140.22" y2="958.05"/><line class="cls-3" x1="152.95" y1="965.68" x2="140.22" y2="965.68"/><line class="cls-3" x1="152.95" y1="973.32" x2="140.22" y2="973.32"/><line class="cls-3" x1="152.95" y1="980.96" x2="140.22" y2="980.96"/><line class="cls-3" x1="152.95" y1="988.6" x2="140.22" y2="988.6"/><line class="cls-3" x1="152.95" y1="996.23" x2="140.22" y2="996.23"/><line class="cls-3" x1="152.95" y1="1003.87" x2="140.22" y2="1003.87"/><line class="cls-3" x1="152.95" y1="1011.51" x2="140.22" y2="1011.51"/><line class="cls-3" x1="152.95" y1="1019.14" x2="140.22" y2="1019.14"/><line class="cls-3" x1="152.95" y1="1026.78" x2="140.22" y2="1026.78"/><line class="cls-3" x1="152.95" y1="1034.42" x2="140.22" y2="1034.42"/><line class="cls-3" x1="152.95" y1="1042.05" x2="140.22" y2="1042.05"/><line class="cls-3" x1="152.95" y1="1049.69" x2="140.22" y2="1049.69"/><line class="cls-3" x1="152.95" y1="1057.33" x2="140.22" y2="1057.33"/><line class="cls-3" x1="152.95" y1="1064.96" x2="140.22" y2="1064.96"/><line class="cls-3" x1="152.95" y1="904.59" x2="140.22" y2="904.59"/><line class="cls-3" x1="152.95" y1="896.95" x2="140.22" y2="896.95"/><line class="cls-3" x1="152.95" y1="889.32" x2="140.22" y2="889.32"/><line class="cls-3" x1="152.95" y1="881.68" x2="140.22" y2="881.68"/><line class="cls-3" x1="152.95" y1="874.04" x2="140.22" y2="874.04"/><line class="cls-3" x1="152.95" y1="866.41" x2="140.22" y2="866.41"/><line class="cls-3" x1="152.95" y1="858.77" x2="140.22" y2="858.77"/><line class="cls-3" x1="152.95" y1="851.13" x2="140.22" y2="851.13"/><line class="cls-3" x1="152.95" y1="843.5" x2="140.22" y2="843.5"/><line class="cls-3" x1="152.95" y1="835.86" x2="140.22" y2="835.86"/><line class="cls-3" x1="152.95" y1="828.22" x2="140.22" y2="828.22"/><line class="cls-3" x1="152.95" y1="820.59" x2="140.22" y2="820.59"/><line class="cls-3" x1="152.95" y1="812.95" x2="140.22" y2="812.95"/><line class="cls-3" x1="152.95" y1="805.31" x2="140.22" y2="805.31"/><path d="M195,871l-.68.67-2.56-2.56.68-.67Z" transform="translate(0.5)"/><path d="M195.72,878.06l.56-.56,1.41,0c3.36.08,5,0,6-1a1.7,1.7,0,0,0,0-2.65,3.24,3.24,0,0,0-2-.86l.35-.94a4.2,4.2,0,0,1,2.59,1.23,2.68,2.68,0,0,1,.11,4c-1.25,1.25-3.16,1.35-5.95,1.3l-1,0,0,0,3,3-.75.76Z" transform="translate(0.5)"/><path d="M212.1,887.55c-2.29,2.29-4.41,2.71-5.9,1.21-1.32-1.32-1-3.44,1.23-5.69s4.48-2.53,5.85-1.17S214.25,885.4,212.1,887.55ZM208.33,884c-1.75,1.75-2.21,3.29-1.38,4.12s2.47.29,4.19-1.43,2.33-3.18,1.38-4.12C211.73,881.76,210.17,882.15,208.33,884Z" transform="translate(0.5)"/><path d="M218.18,894.23l-.68.67-2.56-2.56.67-.68Z" transform="translate(0.5)"/><path class="cls-3" d="M171.62,898.29A15.42,15.42,0,0,1,187,913.71" transform="translate(0.5)"/><path class="cls-3" d="M212.72,858.66a15.41,15.41,0,0,1,15.42,15.41" transform="translate(0.5)"/><path class="cls-3" d="M61.4,999.07a16.35,16.35,0,0,1,16.35,16.35" transform="translate(0.5)"/><path class="cls-3" d="M101.18,957.73a16.35,16.35,0,0,1,16.35,16.35" transform="translate(0.5)"/><path class="cls-8" d="M209.4,925.05l-4.44.46a68.46,68.46,0,0,1,0,19.18l4.44.46A68.39,68.39,0,0,0,209.4,925.05Z" transform="translate(0.5)"/><path class="cls-8" d="M200.52,926l-4.45.45a68.15,68.15,0,0,1,0,17.36l4.45.45A68.91,68.91,0,0,0,200.52,926Z" transform="translate(0.5)"/><path class="cls-9" d="M222.66,923.69l-4.42.45a67.74,67.74,0,0,1,0,21.92l4.42.45A67.76,67.76,0,0,0,222.66,923.69Z" transform="translate(0.5)"/><path class="cls-8" d="M196.07,926.42l-4.44.46a68.5,68.5,0,0,1,0,16.44l4.44.46A68.15,68.15,0,0,0,196.07,926.42Z" transform="translate(0.5)"/><path class="cls-8" d="M213.82,924.6l-4.42.45a68.39,68.39,0,0,1,0,20.1l4.42.45A67.84,67.84,0,0,0,213.82,924.6Z" transform="translate(0.5)"/><path class="cls-9" d="M218.24,924.14l-4.42.46a67.84,67.84,0,0,1,0,21l4.42.46A67.74,67.74,0,0,0,218.24,924.14Z" transform="translate(0.5)"/><path class="cls-10" d="M182.75,927.8l-4.45.45a68.18,68.18,0,0,1,0,13.7l4.45.45A68.52,68.52,0,0,0,182.75,927.8Z" transform="translate(0.5)"/><path class="cls-10" d="M173.84,928.71l-4.46.46a69.08,69.08,0,0,1,0,11.86l4.46.46A68.2,68.2,0,0,0,173.84,928.71Z" transform="translate(0.5)"/><path class="cls-10" d="M178.3,928.25l-4.46.46a68.2,68.2,0,0,1,0,12.78l4.46.46A68.18,68.18,0,0,0,178.3,928.25Z" transform="translate(0.5)"/><path class="cls-10" d="M169.38,929.17l-4.47.46a68.89,68.89,0,0,1,0,10.94l4.47.46A69.08,69.08,0,0,0,169.38,929.17Z" transform="translate(0.5)"/><path class="cls-10" d="M187.19,927.34l-4.44.46a68.52,68.52,0,0,1,0,14.6l4.44.46A68.26,68.26,0,0,0,187.19,927.34Z" transform="translate(0.5)"/><path class="cls-8" d="M191.63,926.88l-4.44.46a68.26,68.26,0,0,1,0,15.52l4.44.46A68.5,68.5,0,0,0,191.63,926.88Z" transform="translate(0.5)"/><path class="cls-9" d="M227.08,923.23l-4.42.46a67.76,67.76,0,0,1,0,22.82l4.42.46A67.62,67.62,0,0,0,227.08,923.23Z" transform="translate(0.5)"/><path class="cls-8" d="M205,925.51l-4.44.46a68.91,68.91,0,0,1,0,18.26l4.44.46A68.46,68.46,0,0,0,205,925.51Z" transform="translate(0.5)"/><path class="cls-11" d="M275.45,918.25l-4.37.45a66.23,66.23,0,0,1,0,32.8l4.37.45A65.92,65.92,0,0,0,275.45,918.25Z" transform="translate(0.5)"/><path class="cls-11" d="M271.08,918.7l-4.39.45a66.45,66.45,0,0,1,0,31.9l4.39.45A66.23,66.23,0,0,0,271.08,918.7Z" transform="translate(0.5)"/><path class="cls-11" d="M266.69,919.15l-4.39.46a66.47,66.47,0,0,1,0,31l4.39.46A66.45,66.45,0,0,0,266.69,919.15Z" transform="translate(0.5)"/><path class="cls-11" d="M262.3,919.61l-4.39.45a66.71,66.71,0,0,1,0,30.08l4.39.45A66.47,66.47,0,0,0,262.3,919.61Z" transform="translate(0.5)"/><path class="cls-11" d="M284.18,917.35l-4.36.45a65.94,65.94,0,0,1,0,34.6l4.36.45A65.65,65.65,0,0,0,284.18,917.35Z" transform="translate(0.5)"/><path class="cls-11" d="M279.82,917.8l-4.37.45a65.92,65.92,0,0,1,0,33.7l4.37.45A65.94,65.94,0,0,0,279.82,917.8Z" transform="translate(0.5)"/><path class="cls-9" d="M231.49,922.78l-4.41.45a67.62,67.62,0,0,1,0,23.74l4.41.45A67.14,67.14,0,0,0,231.49,922.78Z" transform="translate(0.5)"/><path class="cls-9" d="M244.73,921.41l-4.4.46a67.34,67.34,0,0,1,0,26.46l4.4.46A67.16,67.16,0,0,0,244.73,921.41Z" transform="translate(0.5)"/><path class="cls-9" d="M240.33,921.87l-4.42.45a67.41,67.41,0,0,1,0,25.56l4.42.45A67.34,67.34,0,0,0,240.33,921.87Z" transform="translate(0.5)"/><path class="cls-11" d="M257.91,920.06l-4.4.45a66.51,66.51,0,0,1,0,29.18l4.4.45A66.71,66.71,0,0,0,257.91,920.06Z" transform="translate(0.5)"/><path class="cls-9" d="M235.91,922.32l-4.42.46a67.14,67.14,0,0,1,0,24.64l4.42.46A67.41,67.41,0,0,0,235.91,922.32Z" transform="translate(0.5)"/><path class="cls-11" d="M253.51,920.51l-4.39.45a66.74,66.74,0,0,1,0,28.28l4.39.45A66.51,66.51,0,0,0,253.51,920.51Z" transform="translate(0.5)"/><path class="cls-9" d="M249.12,921l-4.39.45a67.16,67.16,0,0,1,0,27.38l4.39.45A66.74,66.74,0,0,0,249.12,921Z" transform="translate(0.5)"/><path class="cls-8" d="M85.22,925.05l4.44.46a67.72,67.72,0,0,0,0,19.18l-4.44.46A67.71,67.71,0,0,1,85.22,925.05Z" transform="translate(0.5)"/><path class="cls-8" d="M94.1,926l4.44.45a69.08,69.08,0,0,0,0,17.36l-4.44.45A68.08,68.08,0,0,1,94.1,926Z" transform="translate(0.5)"/><path class="cls-9" d="M72,923.69l4.42.45a67.74,67.74,0,0,0,0,21.92l-4.42.45A67.76,67.76,0,0,1,72,923.69Z" transform="translate(0.5)"/><path class="cls-8" d="M98.54,926.42l4.44.46a68.5,68.5,0,0,0,0,16.44l-4.44.46A69.08,69.08,0,0,1,98.54,926.42Z" transform="translate(0.5)"/><path class="cls-8" d="M80.79,924.6l4.43.45a67.71,67.71,0,0,0,0,20.1l-4.43.45A68.46,68.46,0,0,1,80.79,924.6Z" transform="translate(0.5)"/><path class="cls-9" d="M76.38,924.14l4.41.46a68.46,68.46,0,0,0,0,21l-4.41.46A67.74,67.74,0,0,1,76.38,924.14Z" transform="translate(0.5)"/><path class="cls-10" d="M111.87,927.8l4.44.45a69.68,69.68,0,0,0,0,13.7l-4.44.45A68.52,68.52,0,0,1,111.87,927.8Z" transform="translate(0.5)"/><path class="cls-10" d="M120.77,928.71l4.47.46a69.08,69.08,0,0,0,0,11.86l-4.47.46A69.94,69.94,0,0,1,120.77,928.71Z" transform="translate(0.5)"/><path class="cls-10" d="M116.31,928.25l4.46.46a69.94,69.94,0,0,0,0,12.78l-4.46.46A69.68,69.68,0,0,1,116.31,928.25Z" transform="translate(0.5)"/><path class="cls-10" d="M125.24,929.17l4.47.46a68.89,68.89,0,0,0,0,10.94l-4.47.46A69.08,69.08,0,0,1,125.24,929.17Z" transform="translate(0.5)"/><path class="cls-10" d="M107.43,927.34l4.44.46a68.52,68.52,0,0,0,0,14.6l-4.44.46A68.26,68.26,0,0,1,107.43,927.34Z" transform="translate(0.5)"/><path class="cls-8" d="M103,926.88l4.45.46a68.26,68.26,0,0,0,0,15.52l-4.45.46A68.5,68.5,0,0,1,103,926.88Z" transform="translate(0.5)"/><path class="cls-9" d="M67.54,923.23l4.42.46a67.76,67.76,0,0,0,0,22.82l-4.42.46A67.62,67.62,0,0,1,67.54,923.23Z" transform="translate(0.5)"/><path class="cls-8" d="M89.66,925.51l4.44.46a68.08,68.08,0,0,0,0,18.26l-4.44.46A67.72,67.72,0,0,1,89.66,925.51Z" transform="translate(0.5)"/><path class="cls-11" d="M19.16,918.25l4.38.45a66.23,66.23,0,0,0,0,32.8l-4.38.45A66.14,66.14,0,0,1,19.16,918.25Z" transform="translate(0.5)"/><path class="cls-11" d="M23.54,918.7l4.39.45a66.21,66.21,0,0,0,0,31.9l-4.39.45A66.23,66.23,0,0,1,23.54,918.7Z" transform="translate(0.5)"/><path class="cls-11" d="M27.93,919.15l4.39.46a66.47,66.47,0,0,0,0,31l-4.39.46A66.21,66.21,0,0,1,27.93,919.15Z" transform="translate(0.5)"/><path class="cls-11" d="M32.32,919.61l4.39.45a66.71,66.71,0,0,0,0,30.08l-4.39.45A66.47,66.47,0,0,1,32.32,919.61Z" transform="translate(0.5)"/><path class="cls-11" d="M10.44,917.35l4.36.45a65.73,65.73,0,0,0,0,34.6l-4.36.45A65.46,65.46,0,0,1,10.44,917.35Z" transform="translate(0.5)"/><path class="cls-11" d="M14.8,917.8l4.36.45a66.14,66.14,0,0,0,0,33.7l-4.36.45A65.73,65.73,0,0,1,14.8,917.8Z" transform="translate(0.5)"/><path class="cls-9" d="M63.12,922.78l4.42.45a67.62,67.62,0,0,0,0,23.74l-4.42.45A67.58,67.58,0,0,1,63.12,922.78Z" transform="translate(0.5)"/><path class="cls-9" d="M49.88,921.41l4.41.46a67.34,67.34,0,0,0,0,26.46l-4.41.46A67.52,67.52,0,0,1,49.88,921.41Z" transform="translate(0.5)"/><path class="cls-9" d="M54.29,921.87l4.41.45a67.41,67.41,0,0,0,0,25.56l-4.41.45A67.34,67.34,0,0,1,54.29,921.87Z" transform="translate(0.5)"/><path class="cls-11" d="M36.71,920.06l4.39.45a66.81,66.81,0,0,0,0,29.18l-4.39.45A66.71,66.71,0,0,1,36.71,920.06Z" transform="translate(0.5)"/><path class="cls-9" d="M58.7,922.32l4.42.46a67.58,67.58,0,0,0,0,24.64l-4.42.46A67.41,67.41,0,0,1,58.7,922.32Z" transform="translate(0.5)"/><path class="cls-11" d="M41.1,920.51l4.39.45a67.07,67.07,0,0,0,0,28.28l-4.39.45A66.81,66.81,0,0,1,41.1,920.51Z" transform="translate(0.5)"/><path class="cls-9" d="M45.49,921l4.39.45a67.52,67.52,0,0,0,0,27.38l-4.39.45A67.07,67.07,0,0,1,45.49,921Z" transform="translate(0.5)"/><path class="cls-2" d="M251.48,56.84a140.4,140.4,0,0,1,0,198.56" transform="translate(0.5)"/><path class="cls-2" d="M52.93,56.84a140.41,140.41,0,0,1,198.55,0" transform="translate(0.5)"/><path class="cls-2" d="M52.93,255.4a140.4,140.4,0,0,1,0-198.56" transform="translate(0.5)"/><path class="cls-2" d="M251.48,255.4a140.39,140.39,0,0,1-198.55,0" transform="translate(0.5)"/><circle class="cls-3" cx="152.7" cy="156.12" r="18.9"/><path d="M107,218.77l.72-.71,2.72,2.71-.72.72Z" transform="translate(0.5)"/><path d="M106.18,211.29l-.59.59-1.5,0c-3.57-.08-5.31,0-6.4,1.08a1.8,1.8,0,0,0,0,2.82,3.41,3.41,0,0,0,2.12.91l-.37,1a4.39,4.39,0,0,1-2.75-1.29,2.85,2.85,0,0,1-.11-4.28c1.32-1.32,3.34-1.43,6.3-1.37l1.1,0,0,0-3.22-3.21.8-.81Z" transform="translate(0.5)"/><path d="M88.81,201.23c2.43-2.44,4.67-2.88,6.26-1.29,1.4,1.4,1,3.65-1.31,6s-4.75,2.69-6.21,1.23S86.53,203.5,88.81,201.23Zm4,3.77c1.86-1.86,2.35-3.49,1.47-4.37s-2.62-.31-4.45,1.52-2.46,3.37-1.46,4.37C89.2,207.37,90.86,207,92.8,205Z" transform="translate(0.5)"/><path d="M82.36,194.14l.72-.71,2.72,2.71-.72.72Z" transform="translate(0.5)"/><polyline class="cls-4" points="178.16 17.39 160.81 138.04 153.77 137.19 144.6 138.04 127.25 17.39"/><line class="cls-4" x1="127.25" y1="17.39" x2="178.16" y2="17.39"/><polygon class="cls-4" points="144.46 173.93 151.97 174.99 160.66 173.93 178.01 294.58 127.1 294.58 144.46 173.93"/><line class="cls-3" x1="159.07" y1="133.21" x2="146.34" y2="133.21"/><line class="cls-3" x1="159.07" y1="179.03" x2="146.34" y2="179.03"/><line class="cls-3" x1="159.07" y1="186.67" x2="146.34" y2="186.67"/><line class="cls-3" x1="159.07" y1="194.31" x2="146.34" y2="194.31"/><line class="cls-3" x1="159.07" y1="201.94" x2="146.34" y2="201.94"/><line class="cls-3" x1="159.07" y1="209.58" x2="146.34" y2="209.58"/><line class="cls-3" x1="159.07" y1="217.22" x2="146.34" y2="217.22"/><line class="cls-3" x1="159.07" y1="224.85" x2="146.34" y2="224.85"/><line class="cls-3" x1="159.07" y1="232.49" x2="146.34" y2="232.49"/><line class="cls-3" x1="159.07" y1="240.13" x2="146.34" y2="240.13"/><line class="cls-3" x1="159.07" y1="247.76" x2="146.34" y2="247.76"/><line class="cls-3" x1="159.07" y1="255.4" x2="146.34" y2="255.4"/><line class="cls-3" x1="159.07" y1="263.04" x2="146.34" y2="263.04"/><line class="cls-3" x1="159.07" y1="270.67" x2="146.34" y2="270.67"/><line class="cls-3" x1="159.07" y1="125.58" x2="146.34" y2="125.58"/><line class="cls-3" x1="159.07" y1="117.94" x2="146.34" y2="117.94"/><line class="cls-3" x1="159.07" y1="110.3" x2="146.34" y2="110.3"/><line class="cls-3" x1="159.07" y1="102.67" x2="146.34" y2="102.67"/><line class="cls-3" x1="159.07" y1="95.03" x2="146.34" y2="95.03"/><line class="cls-3" x1="159.07" y1="87.39" x2="146.34" y2="87.39"/><line class="cls-3" x1="159.07" y1="79.75" x2="146.34" y2="79.75"/><line class="cls-3" x1="159.07" y1="72.12" x2="146.34" y2="72.12"/><line class="cls-3" x1="159.07" y1="64.48" x2="146.34" y2="64.48"/><line class="cls-3" x1="159.07" y1="56.84" x2="146.34" y2="56.84"/><line class="cls-3" x1="159.07" y1="49.21" x2="146.34" y2="49.21"/><line class="cls-3" x1="159.07" y1="41.57" x2="146.34" y2="41.57"/><line class="cls-3" x1="159.07" y1="33.93" x2="146.34" y2="33.93"/><line class="cls-3" x1="159.07" y1="26.3" x2="146.34" y2="26.3"/><path d="M201.08,92l-.67.68-2.57-2.56.68-.68Z" transform="translate(0.5)"/><path d="M201.85,99l.56-.56,1.41,0c3.36.09,5,0,6-1a1.7,1.7,0,0,0,0-2.66,3.24,3.24,0,0,0-2-.86l.35-.93a4.18,4.18,0,0,1,2.6,1.22,2.69,2.69,0,0,1,.1,4c-1.24,1.24-3.15,1.35-5.94,1.29l-1,0,0,0,3,3-.76.76Z" transform="translate(0.5)"/><path d="M218.22,108.53c-2.29,2.3-4.41,2.71-5.9,1.22-1.32-1.32-1-3.45,1.23-5.7s4.49-2.53,5.85-1.16S220.37,106.39,218.22,108.53ZM214.46,105c-1.76,1.75-2.21,3.28-1.38,4.11s2.47.29,4.19-1.43,2.32-3.17,1.38-4.12S216.29,103.14,214.46,105Z" transform="translate(0.5)"/><path d="M224.3,115.21l-.68.68-2.56-2.57.68-.67Z" transform="translate(0.5)"/><path class="cls-3" d="M177.74,119.28a15.41,15.41,0,0,1,15.42,15.41" transform="translate(0.5)"/><path class="cls-3" d="M218.85,79.65a15.41,15.41,0,0,1,15.41,15.41" transform="translate(0.5)"/><path class="cls-3" d="M67.52,220.06a16.35,16.35,0,0,1,16.35,16.35" transform="translate(0.5)"/><path class="cls-3" d="M107.3,178.71a16.36,16.36,0,0,1,16.35,16.35" transform="translate(0.5)"/><path class="cls-8" d="M215.52,146l-4.44.45a68.53,68.53,0,0,1,0,19.19l4.44.45A67.64,67.64,0,0,0,215.52,146Z" transform="translate(0.5)"/><path class="cls-8" d="M206.64,147l-4.44.46a69,69,0,0,1,0,17.35l4.44.46A68.15,68.15,0,0,0,206.64,147Z" transform="translate(0.5)"/><path class="cls-9" d="M228.78,144.67l-4.42.46a67.68,67.68,0,0,1,0,21.91l4.42.46A67.82,67.82,0,0,0,228.78,144.67Z" transform="translate(0.5)"/><path class="cls-8" d="M202.2,147.41l-4.45.46a67.4,67.4,0,0,1,0,16.43l4.45.46A69,69,0,0,0,202.2,147.41Z" transform="translate(0.5)"/><path class="cls-8" d="M220,145.58l-4.43.46a67.64,67.64,0,0,1,0,20.09l4.43.46A68.53,68.53,0,0,0,220,145.58Z" transform="translate(0.5)"/><path class="cls-9" d="M224.36,145.13l-4.41.45a68.53,68.53,0,0,1,0,21l4.41.45A67.68,67.68,0,0,0,224.36,145.13Z" transform="translate(0.5)"/><path class="cls-10" d="M188.87,148.78l-4.44.46a69.58,69.58,0,0,1,0,13.69l4.44.46A68.61,68.61,0,0,0,188.87,148.78Z" transform="translate(0.5)"/><path class="cls-10" d="M180,149.7l-4.46.46a69,69,0,0,1,0,11.85l4.46.46A68.1,68.1,0,0,0,180,149.7Z" transform="translate(0.5)"/><path class="cls-10" d="M184.43,149.24l-4.47.46a68.1,68.1,0,0,1,0,12.77l4.47.46A69.58,69.58,0,0,0,184.43,149.24Z" transform="translate(0.5)"/><path class="cls-10" d="M175.5,150.16l-4.47.46a68.77,68.77,0,0,1,0,10.93l4.47.46A69,69,0,0,0,175.5,150.16Z" transform="translate(0.5)"/><path class="cls-10" d="M193.31,148.32l-4.44.46a68.61,68.61,0,0,1,0,14.61l4.44.46A68.35,68.35,0,0,0,193.31,148.32Z" transform="translate(0.5)"/><path class="cls-8" d="M197.75,147.87l-4.44.45a68.35,68.35,0,0,1,0,15.53l4.44.45A67.4,67.4,0,0,0,197.75,147.87Z" transform="translate(0.5)"/><path class="cls-9" d="M233.2,144.22l-4.42.45a67.82,67.82,0,0,1,0,22.83l4.42.45A67.56,67.56,0,0,0,233.2,144.22Z" transform="translate(0.5)"/><path class="cls-8" d="M211.08,146.49l-4.44.46a68.15,68.15,0,0,1,0,18.27l4.44.46A68.53,68.53,0,0,0,211.08,146.49Z" transform="translate(0.5)"/><path class="cls-11" d="M281.58,139.24l-4.38.45a66.19,66.19,0,0,1,0,32.79l4.38.45A66.1,66.1,0,0,0,281.58,139.24Z" transform="translate(0.5)"/><path class="cls-11" d="M277.2,139.69l-4.39.45a66.17,66.17,0,0,1,0,31.89l4.39.45A66.19,66.19,0,0,0,277.2,139.69Z" transform="translate(0.5)"/><path class="cls-11" d="M272.81,140.14l-4.39.45a66.51,66.51,0,0,1,0,31l4.39.45A66.17,66.17,0,0,0,272.81,140.14Z" transform="translate(0.5)"/><path class="cls-11" d="M268.42,140.59,264,141a66.75,66.75,0,0,1,0,30.09l4.39.45A66.51,66.51,0,0,0,268.42,140.59Z" transform="translate(0.5)"/><path class="cls-11" d="M290.3,138.34l-4.36.45a65.69,65.69,0,0,1,0,34.59l4.36.45A65.42,65.42,0,0,0,290.3,138.34Z" transform="translate(0.5)"/><path class="cls-11" d="M285.94,138.79l-4.36.45a66.1,66.1,0,0,1,0,33.69l4.36.45A65.69,65.69,0,0,0,285.94,138.79Z" transform="translate(0.5)"/><path class="cls-9" d="M237.62,143.76l-4.42.46a67.56,67.56,0,0,1,0,23.73l4.42.46A67.63,67.63,0,0,0,237.62,143.76Z" transform="translate(0.5)"/><path class="cls-9" d="M250.85,142.4l-4.4.45a67.39,67.39,0,0,1,0,26.47l4.4.45A67.12,67.12,0,0,0,250.85,142.4Z" transform="translate(0.5)"/><path class="cls-9" d="M246.45,142.85l-4.41.46a67.77,67.77,0,0,1,0,25.55l4.41.46A67.39,67.39,0,0,0,246.45,142.85Z" transform="translate(0.5)"/><path class="cls-11" d="M264,141l-4.39.46a66.77,66.77,0,0,1,0,29.17l4.39.46A66.75,66.75,0,0,0,264,141Z" transform="translate(0.5)"/><path class="cls-9" d="M242,143.31l-4.42.45a67.63,67.63,0,0,1,0,24.65l4.42.45A67.77,67.77,0,0,0,242,143.31Z" transform="translate(0.5)"/><path class="cls-11" d="M259.64,141.5l-4.39.45a67,67,0,0,1,0,28.27l4.39.45A66.77,66.77,0,0,0,259.64,141.5Z" transform="translate(0.5)"/><path class="cls-9" d="M255.25,142l-4.4.45a67.12,67.12,0,0,1,0,27.37l4.4.45A67,67,0,0,0,255.25,142Z" transform="translate(0.5)"/><path class="cls-8" d="M91.34,146l4.44.45a68.53,68.53,0,0,0,0,19.19l-4.44.45A68.32,68.32,0,0,1,91.34,146Z" transform="translate(0.5)"/><path class="cls-8" d="M100.22,147l4.45.46a68.08,68.08,0,0,0,0,17.35l-4.45.46A69,69,0,0,1,100.22,147Z" transform="translate(0.5)"/><path class="cls-9" d="M78.08,144.67l4.42.46a67.68,67.68,0,0,0,0,21.91l-4.42.46A67.82,67.82,0,0,1,78.08,144.67Z" transform="translate(0.5)"/><path class="cls-8" d="M104.67,147.41l4.44.46a68.42,68.42,0,0,0,0,16.43l-4.44.46A68.08,68.08,0,0,1,104.67,147.41Z" transform="translate(0.5)"/><path class="cls-8" d="M86.92,145.58l4.42.46a68.32,68.32,0,0,0,0,20.09l-4.42.46A67.9,67.9,0,0,1,86.92,145.58Z" transform="translate(0.5)"/><path class="cls-9" d="M82.5,145.13l4.42.45a67.9,67.9,0,0,0,0,21L82.5,167A67.68,67.68,0,0,1,82.5,145.13Z" transform="translate(0.5)"/><path class="cls-10" d="M118,148.78l4.44.46a69.58,69.58,0,0,0,0,13.69l-4.44.46A68.61,68.61,0,0,1,118,148.78Z" transform="translate(0.5)"/><path class="cls-10" d="M126.9,149.7l4.46.46a69,69,0,0,0,0,11.85l-4.46.46A68.1,68.1,0,0,1,126.9,149.7Z" transform="translate(0.5)"/><path class="cls-10" d="M122.43,149.24l4.47.46a68.1,68.1,0,0,0,0,12.77l-4.47.46A69.58,69.58,0,0,1,122.43,149.24Z" transform="translate(0.5)"/><path class="cls-10" d="M131.36,150.16l4.47.46a68.77,68.77,0,0,0,0,10.93l-4.47.46A69,69,0,0,1,131.36,150.16Z" transform="translate(0.5)"/><path class="cls-10" d="M113.55,148.32l4.44.46a68.61,68.61,0,0,0,0,14.61l-4.44.46A68.35,68.35,0,0,1,113.55,148.32Z" transform="translate(0.5)"/><path class="cls-8" d="M109.11,147.87l4.44.45a68.35,68.35,0,0,0,0,15.53l-4.44.45A68.42,68.42,0,0,1,109.11,147.87Z" transform="translate(0.5)"/><path class="cls-9" d="M73.66,144.22l4.42.45a67.82,67.82,0,0,0,0,22.83l-4.42.45A67.56,67.56,0,0,1,73.66,144.22Z" transform="translate(0.5)"/><path class="cls-8" d="M95.78,146.49l4.44.46a69,69,0,0,0,0,18.27l-4.44.46A68.53,68.53,0,0,1,95.78,146.49Z" transform="translate(0.5)"/><path class="cls-11" d="M25.29,139.24l4.37.45a66.19,66.19,0,0,0,0,32.79l-4.37.45A65.88,65.88,0,0,1,25.29,139.24Z" transform="translate(0.5)"/><path class="cls-11" d="M29.66,139.69l4.39.45a66.41,66.41,0,0,0,0,31.89l-4.39.45A66.19,66.19,0,0,1,29.66,139.69Z" transform="translate(0.5)"/><path class="cls-11" d="M34.05,140.14l4.39.45a66.51,66.51,0,0,0,0,31l-4.39.45A66.41,66.41,0,0,1,34.05,140.14Z" transform="translate(0.5)"/><path class="cls-11" d="M38.44,140.59l4.39.45a66.75,66.75,0,0,0,0,30.09l-4.39.45A66.51,66.51,0,0,1,38.44,140.59Z" transform="translate(0.5)"/><path class="cls-11" d="M16.56,138.34l4.36.45a65.9,65.9,0,0,0,0,34.59l-4.36.45A65.62,65.62,0,0,1,16.56,138.34Z" transform="translate(0.5)"/><path class="cls-11" d="M20.92,138.79l4.37.45a65.88,65.88,0,0,0,0,33.69l-4.37.45A65.9,65.9,0,0,1,20.92,138.79Z" transform="translate(0.5)"/><path class="cls-9" d="M69.25,143.76l4.41.46a67.56,67.56,0,0,0,0,23.73l-4.41.46A67.2,67.2,0,0,1,69.25,143.76Z" transform="translate(0.5)"/><path class="cls-9" d="M56,142.4l4.4.45a67.39,67.39,0,0,0,0,26.47l-4.4.45A67.12,67.12,0,0,1,56,142.4Z" transform="translate(0.5)"/><path class="cls-9" d="M60.41,142.85l4.42.46a67.36,67.36,0,0,0,0,25.55l-4.42.46A67.39,67.39,0,0,1,60.41,142.85Z" transform="translate(0.5)"/><path class="cls-11" d="M42.83,141l4.39.46a66.77,66.77,0,0,0,0,29.17l-4.39.46A66.75,66.75,0,0,1,42.83,141Z" transform="translate(0.5)"/><path class="cls-9" d="M64.83,143.31l4.42.45a67.2,67.2,0,0,0,0,24.65l-4.42.45A67.36,67.36,0,0,1,64.83,143.31Z" transform="translate(0.5)"/><path class="cls-11" d="M47.22,141.5l4.4.45a66.7,66.7,0,0,0,0,28.27l-4.4.45A66.77,66.77,0,0,1,47.22,141.5Z" transform="translate(0.5)"/><path class="cls-9" d="M51.62,142l4.39.45a67.12,67.12,0,0,0,0,27.37l-4.39.45A66.7,66.7,0,0,1,51.62,142Z" transform="translate(0.5)"/><path class="cls-2" d="M1869.71,50.91a140.4,140.4,0,0,1,0,198.56" transform="translate(0.5)"/><path class="cls-2" d="M1671.16,50.91a140.39,140.39,0,0,1,198.55,0" transform="translate(0.5)"/><path class="cls-2" d="M1671.16,249.47a140.4,140.4,0,0,1,0-198.56" transform="translate(0.5)"/><path class="cls-2" d="M1869.71,249.47a140.39,140.39,0,0,1-198.55,0" transform="translate(0.5)"/><circle class="cls-3" cx="1770.94" cy="150.19" r="18.9"/><path d="M1725.22,212.84l.72-.72,2.72,2.72-.72.72Z" transform="translate(0.5)"/><path d="M1724.41,205.36l-.59.59-1.5,0c-3.56-.08-5.31,0-6.4,1.08a1.8,1.8,0,0,0,0,2.82,3.41,3.41,0,0,0,2.12.91l-.37,1a4.42,4.42,0,0,1-2.75-1.3,2.85,2.85,0,0,1-.11-4.27c1.32-1.32,3.34-1.43,6.3-1.37l1.1,0,0,0L1719,201.6l.81-.81Z" transform="translate(0.5)"/><path d="M1707,195.29c2.43-2.43,4.68-2.87,6.26-1.28,1.4,1.4,1,3.65-1.31,6s-4.75,2.68-6.2,1.23S1704.76,197.57,1707,195.29Zm4,3.78c1.86-1.86,2.35-3.49,1.47-4.37s-2.62-.31-4.45,1.52-2.46,3.37-1.46,4.37C1707.44,201.44,1709.09,201,1711,199.07Z" transform="translate(0.5)"/><path d="M1700.59,188.21l.72-.71,2.72,2.71-.72.72Z" transform="translate(0.5)"/><polyline class="cls-4" points="1796.39 11.46 1779.04 132.11 1772 131.25 1762.84 132.11 1745.48 11.46"/><line class="cls-4" x1="1745.48" y1="10.96" x2="1796.39" y2="10.96"/><polygon class="cls-4" points="1762.69 168 1770.2 169.05 1778.89 168 1796.25 288.65 1745.33 288.65 1762.69 168"/><line class="cls-3" x1="1777.3" y1="127.28" x2="1764.57" y2="127.28"/><line class="cls-3" x1="1777.3" y1="173.1" x2="1764.57" y2="173.1"/><line class="cls-3" x1="1777.3" y1="180.74" x2="1764.57" y2="180.74"/><line class="cls-3" x1="1777.3" y1="188.38" x2="1764.57" y2="188.38"/><line class="cls-3" x1="1777.3" y1="196.01" x2="1764.57" y2="196.01"/><line class="cls-3" x1="1777.3" y1="203.65" x2="1764.57" y2="203.65"/><line class="cls-3" x1="1777.3" y1="211.29" x2="1764.57" y2="211.29"/><line class="cls-3" x1="1777.3" y1="218.92" x2="1764.57" y2="218.92"/><line class="cls-3" x1="1777.3" y1="226.56" x2="1764.57" y2="226.56"/><line class="cls-3" x1="1777.3" y1="234.2" x2="1764.57" y2="234.2"/><line class="cls-3" x1="1777.3" y1="241.83" x2="1764.57" y2="241.83"/><line class="cls-3" x1="1777.3" y1="249.47" x2="1764.57" y2="249.47"/><line class="cls-3" x1="1777.3" y1="257.11" x2="1764.57" y2="257.11"/><line class="cls-3" x1="1777.3" y1="264.74" x2="1764.57" y2="264.74"/><line class="cls-3" x1="1777.3" y1="119.64" x2="1764.57" y2="119.64"/><line class="cls-3" x1="1777.3" y1="112.01" x2="1764.57" y2="112.01"/><line class="cls-3" x1="1777.3" y1="104.37" x2="1764.57" y2="104.37"/><line class="cls-3" x1="1777.3" y1="96.73" x2="1764.57" y2="96.73"/><line class="cls-3" x1="1777.3" y1="89.1" x2="1764.57" y2="89.1"/><line class="cls-3" x1="1777.3" y1="81.46" x2="1764.57" y2="81.46"/><line class="cls-3" x1="1777.3" y1="73.82" x2="1764.57" y2="73.82"/><line class="cls-3" x1="1777.3" y1="66.19" x2="1764.57" y2="66.19"/><line class="cls-3" x1="1777.3" y1="58.55" x2="1764.57" y2="58.55"/><line class="cls-3" x1="1777.3" y1="50.91" x2="1764.57" y2="50.91"/><line class="cls-3" x1="1777.3" y1="43.28" x2="1764.57" y2="43.28"/><line class="cls-3" x1="1777.3" y1="35.64" x2="1764.57" y2="35.64"/><line class="cls-3" x1="1777.3" y1="28" x2="1764.57" y2="28"/><line class="cls-3" x1="1777.3" y1="20.37" x2="1764.57" y2="20.37"/><path d="M1819.31,86.06l-.67.68-2.56-2.57.67-.67Z" transform="translate(0.5)"/><path d="M1820.08,93.11l.56-.56,1.41,0c3.36.09,5,0,6-1a1.71,1.71,0,0,0,0-2.66,3.28,3.28,0,0,0-2-.86l.36-.93a4.15,4.15,0,0,1,2.59,1.22,2.69,2.69,0,0,1,.1,4c-1.24,1.24-3.15,1.34-5.94,1.29l-1,0,0,0,3,3-.76.76Z" transform="translate(0.5)"/><path d="M1836.46,102.6c-2.3,2.3-4.41,2.71-5.91,1.22-1.32-1.32-1-3.45,1.24-5.7s4.48-2.53,5.85-1.16S1838.6,100.46,1836.46,102.6ZM1832.69,99c-1.75,1.76-2.21,3.29-1.38,4.12s2.47.29,4.19-1.43,2.32-3.17,1.38-4.12C1836.08,96.81,1834.53,97.21,1832.69,99Z" transform="translate(0.5)"/><path d="M1842.53,109.28l-.67.67-2.57-2.56.68-.67Z" transform="translate(0.5)"/><path class="cls-3" d="M1796,113.35a15.41,15.41,0,0,1,15.41,15.41" transform="translate(0.5)"/><path class="cls-3" d="M1837.08,73.71a15.42,15.42,0,0,1,15.41,15.42" transform="translate(0.5)"/><path class="cls-3" d="M1685.75,214.12a16.35,16.35,0,0,1,16.35,16.35" transform="translate(0.5)"/><path class="cls-3" d="M1725.54,172.78a16.35,16.35,0,0,1,16.35,16.35" transform="translate(0.5)"/><path class="cls-8" d="M1833.76,140.11l-4.45.45a67.72,67.72,0,0,1,0,19.18l4.45.46A68.32,68.32,0,0,0,1833.76,140.11Z" transform="translate(0.5)"/><path class="cls-8" d="M1824.87,141l-4.44.46a68.08,68.08,0,0,1,0,17.35l4.44.46A68.15,68.15,0,0,0,1824.87,141Z" transform="translate(0.5)"/><path class="cls-9" d="M1847,138.74l-4.41.46a68.25,68.25,0,0,1,0,21.91l4.41.46A67.31,67.31,0,0,0,1847,138.74Z" transform="translate(0.5)"/><path class="cls-8" d="M1820.43,141.48l-4.44.45a68.5,68.5,0,0,1,0,16.44l4.44.46A68.08,68.08,0,0,0,1820.43,141.48Z" transform="translate(0.5)"/><path class="cls-8" d="M1838.18,139.65l-4.42.46a68.32,68.32,0,0,1,0,20.09l4.42.46A67.9,67.9,0,0,0,1838.18,139.65Z" transform="translate(0.5)"/><path class="cls-9" d="M1842.6,139.2l-4.42.45a67.9,67.9,0,0,1,0,21l4.42.45A68.25,68.25,0,0,0,1842.6,139.2Z" transform="translate(0.5)"/><path class="cls-10" d="M1807.1,142.85l-4.44.46a68.08,68.08,0,0,1,0,13.69l4.44.46A68.61,68.61,0,0,0,1807.1,142.85Z" transform="translate(0.5)"/><path class="cls-10" d="M1798.2,143.77l-4.47.46a69,69,0,0,1,0,11.85l4.47.46A69.84,69.84,0,0,0,1798.2,143.77Z" transform="translate(0.5)"/><path class="cls-10" d="M1802.66,143.31l-4.46.46a69.84,69.84,0,0,1,0,12.77l4.46.46A68.08,68.08,0,0,0,1802.66,143.31Z" transform="translate(0.5)"/><path class="cls-10" d="M1793.73,144.23l-4.46.46a68.77,68.77,0,0,1,0,10.93l4.46.46A69,69,0,0,0,1793.73,144.23Z" transform="translate(0.5)"/><path class="cls-10" d="M1811.54,142.39l-4.44.46a68.61,68.61,0,0,1,0,14.61l4.44.46A68.35,68.35,0,0,0,1811.54,142.39Z" transform="translate(0.5)"/><path class="cls-8" d="M1816,141.93l-4.45.46a68.35,68.35,0,0,1,0,15.53l4.45.45A68.5,68.5,0,0,0,1816,141.93Z" transform="translate(0.5)"/><path class="cls-9" d="M1851.43,138.29l-4.42.45a67.31,67.31,0,0,1,0,22.83l4.42.45A67.56,67.56,0,0,0,1851.43,138.29Z" transform="translate(0.5)"/><path class="cls-8" d="M1829.31,140.56l-4.44.46a68.15,68.15,0,0,1,0,18.27l4.44.45A67.72,67.72,0,0,0,1829.31,140.56Z" transform="translate(0.5)"/><path class="cls-11" d="M1899.81,133.31l-4.37.45a66.19,66.19,0,0,1,0,32.79l4.37.45A66.1,66.1,0,0,0,1899.81,133.31Z" transform="translate(0.5)"/><path class="cls-11" d="M1895.44,133.76l-4.4.45a66.17,66.17,0,0,1,0,31.89l4.4.45A66.19,66.19,0,0,0,1895.44,133.76Z" transform="translate(0.5)"/><path class="cls-11" d="M1891,134.21l-4.39.45a66.51,66.51,0,0,1,0,31l4.39.45A66.17,66.17,0,0,0,1891,134.21Z" transform="translate(0.5)"/><path class="cls-11" d="M1886.65,134.66l-4.39.45a66.43,66.43,0,0,1,0,30.08l4.39.46A66.51,66.51,0,0,0,1886.65,134.66Z" transform="translate(0.5)"/><path class="cls-11" d="M1908.53,132.41l-4.36.45a65.69,65.69,0,0,1,0,34.59l4.36.45A65.42,65.42,0,0,0,1908.53,132.41Z" transform="translate(0.5)"/><path class="cls-11" d="M1904.17,132.86l-4.36.45a66.1,66.1,0,0,1,0,33.69l4.36.45A65.69,65.69,0,0,0,1904.17,132.86Z" transform="translate(0.5)"/><path class="cls-9" d="M1855.85,137.83l-4.42.46a67.56,67.56,0,0,1,0,23.73l4.42.46A67.63,67.63,0,0,0,1855.85,137.83Z" transform="translate(0.5)"/><path class="cls-9" d="M1869.09,136.47l-4.4.45a67.39,67.39,0,0,1,0,26.47l4.4.45A67.12,67.12,0,0,0,1869.09,136.47Z" transform="translate(0.5)"/><path class="cls-9" d="M1864.69,136.92l-4.42.46a67.36,67.36,0,0,1,0,25.55l4.42.46A67.39,67.39,0,0,0,1864.69,136.92Z" transform="translate(0.5)"/><path class="cls-11" d="M1882.26,135.11l-4.39.45a66.81,66.81,0,0,1,0,29.18l4.39.45A66.43,66.43,0,0,0,1882.26,135.11Z" transform="translate(0.5)"/><path class="cls-9" d="M1860.27,137.38l-4.42.45a67.63,67.63,0,0,1,0,24.65l4.42.45A67.36,67.36,0,0,0,1860.27,137.38Z" transform="translate(0.5)"/><path class="cls-11" d="M1877.87,135.56l-4.39.46a67,67,0,0,1,0,28.27l4.39.45A66.81,66.81,0,0,0,1877.87,135.56Z" transform="translate(0.5)"/><path class="cls-9" d="M1873.48,136l-4.39.45a67.12,67.12,0,0,1,0,27.37l4.39.45A67,67,0,0,0,1873.48,136Z" transform="translate(0.5)"/><path class="cls-8" d="M1709.57,140.11l4.44.45a68.46,68.46,0,0,0,0,19.18l-4.44.46A68.32,68.32,0,0,1,1709.57,140.11Z" transform="translate(0.5)"/><path class="cls-8" d="M1718.46,141l4.44.46a68.08,68.08,0,0,0,0,17.35l-4.44.46A68.15,68.15,0,0,1,1718.46,141Z" transform="translate(0.5)"/><path class="cls-9" d="M1696.31,138.74l4.42.46a67.68,67.68,0,0,0,0,21.91l-4.42.46A67.82,67.82,0,0,1,1696.31,138.74Z" transform="translate(0.5)"/><path class="cls-8" d="M1722.9,141.48l4.44.45a68.5,68.5,0,0,0,0,16.44l-4.44.46A68.08,68.08,0,0,1,1722.9,141.48Z" transform="translate(0.5)"/><path class="cls-8" d="M1705.15,139.65l4.42.46a68.32,68.32,0,0,0,0,20.09l-4.42.46A67.9,67.9,0,0,1,1705.15,139.65Z" transform="translate(0.5)"/><path class="cls-9" d="M1700.73,139.2l4.42.45a67.9,67.9,0,0,0,0,21l-4.42.45A67.68,67.68,0,0,1,1700.73,139.2Z" transform="translate(0.5)"/><path class="cls-10" d="M1736.22,142.85l4.45.46a68.08,68.08,0,0,0,0,13.69l-4.45.46A68.61,68.61,0,0,1,1736.22,142.85Z" transform="translate(0.5)"/><path class="cls-10" d="M1745.13,143.77l4.47.46a67,67,0,0,0,0,11.85l-4.47.46A68.1,68.1,0,0,1,1745.13,143.77Z" transform="translate(0.5)"/><path class="cls-10" d="M1740.67,143.31l4.46.46a68.1,68.1,0,0,0,0,12.77l-4.46.46A68.08,68.08,0,0,1,1740.67,143.31Z" transform="translate(0.5)"/><path class="cls-10" d="M1749.6,144.23l4.46.46a68.77,68.77,0,0,0,0,10.93l-4.46.46A67,67,0,0,1,1749.6,144.23Z" transform="translate(0.5)"/><path class="cls-10" d="M1731.78,142.39l4.44.46a68.61,68.61,0,0,0,0,14.61l-4.44.46A68.35,68.35,0,0,1,1731.78,142.39Z" transform="translate(0.5)"/><path class="cls-8" d="M1727.34,141.93l4.44.46a68.35,68.35,0,0,0,0,15.53l-4.44.45A68.5,68.5,0,0,1,1727.34,141.93Z" transform="translate(0.5)"/><path class="cls-9" d="M1691.89,138.29l4.42.45a67.82,67.82,0,0,0,0,22.83l-4.42.45A68,68,0,0,1,1691.89,138.29Z" transform="translate(0.5)"/><path class="cls-8" d="M1714,140.56l4.45.46a68.15,68.15,0,0,0,0,18.27l-4.45.45A68.46,68.46,0,0,1,1714,140.56Z" transform="translate(0.5)"/><path class="cls-11" d="M1643.52,133.31l4.37.45a66.19,66.19,0,0,0,0,32.79l-4.37.45A65.88,65.88,0,0,1,1643.52,133.31Z" transform="translate(0.5)"/><path class="cls-11" d="M1647.89,133.76l4.39.45a66.41,66.41,0,0,0,0,31.89l-4.39.45A66.19,66.19,0,0,1,1647.89,133.76Z" transform="translate(0.5)"/><path class="cls-11" d="M1652.28,134.21l4.39.45a66.51,66.51,0,0,0,0,31l-4.39.45A66.41,66.41,0,0,1,1652.28,134.21Z" transform="translate(0.5)"/><path class="cls-11" d="M1656.67,134.66l4.4.45a66.43,66.43,0,0,0,0,30.08l-4.4.46A66.51,66.51,0,0,1,1656.67,134.66Z" transform="translate(0.5)"/><path class="cls-11" d="M1634.79,132.41l4.36.45a65.9,65.9,0,0,0,0,34.59l-4.36.45A65.62,65.62,0,0,1,1634.79,132.41Z" transform="translate(0.5)"/><path class="cls-11" d="M1639.15,132.86l4.37.45a65.88,65.88,0,0,0,0,33.69l-4.37.45A65.9,65.9,0,0,1,1639.15,132.86Z" transform="translate(0.5)"/><path class="cls-9" d="M1687.48,137.83l4.41.46a68,68,0,0,0,0,23.73l-4.41.46A67.2,67.2,0,0,1,1687.48,137.83Z" transform="translate(0.5)"/><path class="cls-9" d="M1674.24,136.47l4.4.45a67.39,67.39,0,0,0,0,26.47l-4.4.45A67.12,67.12,0,0,1,1674.24,136.47Z" transform="translate(0.5)"/><path class="cls-9" d="M1678.64,136.92l4.42.46a67.36,67.36,0,0,0,0,25.55l-4.42.46A67.39,67.39,0,0,1,1678.64,136.92Z" transform="translate(0.5)"/><path class="cls-11" d="M1661.07,135.11l4.39.45a66.81,66.81,0,0,0,0,29.18l-4.39.45A66.43,66.43,0,0,1,1661.07,135.11Z" transform="translate(0.5)"/><path class="cls-9" d="M1683.06,137.38l4.42.45a67.2,67.2,0,0,0,0,24.65l-4.42.45A67.36,67.36,0,0,1,1683.06,137.38Z" transform="translate(0.5)"/><path class="cls-11" d="M1665.46,135.56l4.39.46a67,67,0,0,0,0,28.27l-4.39.45A66.81,66.81,0,0,1,1665.46,135.56Z" transform="translate(0.5)"/><path class="cls-9" d="M1669.85,136l4.39.45a67.12,67.12,0,0,0,0,27.37l-4.39.45A67,67,0,0,1,1669.85,136Z" transform="translate(0.5)"/><path class="cls-2" d="M1869.65,832.45a140.39,140.39,0,0,1,0,198.55" transform="translate(0.5)"/><path class="cls-2" d="M1671.09,832.45a140.4,140.4,0,0,1,198.56,0" transform="translate(0.5)"/><path class="cls-2" d="M1671.09,1031a140.39,140.39,0,0,1,0-198.55" transform="translate(0.5)"/><path class="cls-2" d="M1869.65,1031a140.4,140.4,0,0,1-198.56,0" transform="translate(0.5)"/><circle class="cls-3" cx="1770.87" cy="931.72" r="18.9"/><path d="M1725.16,994.37l.71-.71,2.72,2.72-.72.71Z" transform="translate(0.5)"/><path d="M1724.34,986.89l-.59.6-1.5,0c-3.56-.09-5.31,0-6.4,1.07a1.8,1.8,0,0,0,0,2.82,3.49,3.49,0,0,0,2.13.92l-.38,1a4.5,4.5,0,0,1-2.75-1.3,2.85,2.85,0,0,1-.11-4.27c1.32-1.32,3.34-1.43,6.31-1.38l1.1,0,0,0-3.22-3.21.81-.8Z" transform="translate(0.5)"/><path d="M1707,976.83c2.43-2.43,4.68-2.87,6.26-1.29,1.4,1.4,1,3.65-1.31,6s-4.75,2.69-6.2,1.23S1704.69,979.11,1707,976.83Zm4,3.77c1.86-1.86,2.34-3.49,1.46-4.37s-2.62-.3-4.45,1.52-2.46,3.37-1.46,4.37C1707.37,983,1709,982.55,1711,980.6Z" transform="translate(0.5)"/><path d="M1700.53,969.74l.71-.71,2.72,2.72-.72.71Z" transform="translate(0.5)"/><polyline class="cls-4" points="1796.32 792.99 1778.97 913.64 1771.93 912.79 1762.77 913.64 1745.41 792.99"/><line class="cls-4" x1="1745.41" y1="792.99" x2="1796.32" y2="792.99"/><polygon class="cls-4" points="1762.62 949.53 1770.13 950.59 1778.82 949.53 1796.18 1070.18 1745.27 1070.18 1762.62 949.53"/><line class="cls-3" x1="1777.23" y1="908.81" x2="1764.5" y2="908.81"/><line class="cls-3" x1="1777.23" y1="954.63" x2="1764.5" y2="954.63"/><line class="cls-3" x1="1777.23" y1="962.27" x2="1764.5" y2="962.27"/><line class="cls-3" x1="1777.23" y1="969.91" x2="1764.5" y2="969.91"/><line class="cls-3" x1="1777.23" y1="977.55" x2="1764.5" y2="977.55"/><line class="cls-3" x1="1777.23" y1="985.18" x2="1764.5" y2="985.18"/><line class="cls-3" x1="1777.23" y1="992.82" x2="1764.5" y2="992.82"/><line class="cls-3" x1="1777.23" y1="1000.46" x2="1764.5" y2="1000.46"/><line class="cls-3" x1="1777.23" y1="1008.09" x2="1764.5" y2="1008.09"/><line class="cls-3" x1="1777.23" y1="1015.73" x2="1764.5" y2="1015.73"/><line class="cls-3" x1="1777.23" y1="1023.37" x2="1764.5" y2="1023.37"/><line class="cls-3" x1="1777.23" y1="1031" x2="1764.5" y2="1031"/><line class="cls-3" x1="1777.23" y1="1038.64" x2="1764.5" y2="1038.64"/><line class="cls-3" x1="1777.23" y1="1046.28" x2="1764.5" y2="1046.28"/><line class="cls-3" x1="1777.23" y1="901.18" x2="1764.5" y2="901.18"/><line class="cls-3" x1="1777.23" y1="893.54" x2="1764.5" y2="893.54"/><line class="cls-3" x1="1777.23" y1="885.9" x2="1764.5" y2="885.9"/><line class="cls-3" x1="1777.23" y1="878.27" x2="1764.5" y2="878.27"/><line class="cls-3" x1="1777.23" y1="870.63" x2="1764.5" y2="870.63"/><line class="cls-3" x1="1777.23" y1="862.99" x2="1764.5" y2="862.99"/><line class="cls-3" x1="1777.23" y1="855.36" x2="1764.5" y2="855.36"/><line class="cls-3" x1="1777.23" y1="847.72" x2="1764.5" y2="847.72"/><line class="cls-3" x1="1777.23" y1="840.08" x2="1764.5" y2="840.08"/><line class="cls-3" x1="1777.23" y1="832.45" x2="1764.5" y2="832.45"/><line class="cls-3" x1="1777.23" y1="824.81" x2="1764.5" y2="824.81"/><line class="cls-3" x1="1777.23" y1="817.17" x2="1764.5" y2="817.17"/><line class="cls-3" x1="1777.23" y1="809.54" x2="1764.5" y2="809.54"/><line class="cls-3" x1="1777.23" y1="801.9" x2="1764.5" y2="801.9"/><path d="M1819.24,867.6l-.67.67-2.56-2.56.67-.68Z" transform="translate(0.5)"/><path d="M1820,874.65l.56-.56,1.41,0c3.36.08,5,0,6-1a1.71,1.71,0,0,0,0-2.66,3.32,3.32,0,0,0-2-.86l.36-.93a4.21,4.21,0,0,1,2.59,1.22,2.69,2.69,0,0,1,.1,4c-1.24,1.24-3.15,1.35-5.94,1.3l-1-.05,0,0,3,3-.76.76Z" transform="translate(0.5)"/><path d="M1836.39,884.14c-2.3,2.29-4.41,2.7-5.91,1.21-1.31-1.32-1-3.44,1.24-5.7s4.48-2.53,5.85-1.16S1838.53,882,1836.39,884.14Zm-3.77-3.56c-1.75,1.75-2.21,3.29-1.38,4.12s2.47.29,4.19-1.44,2.33-3.17,1.38-4.11C1836,878.35,1834.46,878.74,1832.62,880.58Z" transform="translate(0.5)"/><path d="M1842.46,890.81l-.67.68-2.56-2.56.67-.68Z" transform="translate(0.5)"/><path class="cls-3" d="M1795.91,894.88a15.41,15.41,0,0,1,15.41,15.42" transform="translate(0.5)"/><path class="cls-3" d="M1837,855.25a15.41,15.41,0,0,1,15.41,15.41" transform="translate(0.5)"/><path class="cls-3" d="M1685.68,995.66A16.35,16.35,0,0,1,1702,1012" transform="translate(0.5)"/><path class="cls-3" d="M1725.47,954.32a16.35,16.35,0,0,1,16.35,16.35" transform="translate(0.5)"/><path class="cls-8" d="M1833.69,921.64l-4.44.46a68.46,68.46,0,0,1,0,19.18l4.44.45A68.32,68.32,0,0,0,1833.69,921.64Z" transform="translate(0.5)"/><path class="cls-8" d="M1824.8,922.55l-4.44.46a68.08,68.08,0,0,1,0,17.35l4.44.46A68.15,68.15,0,0,0,1824.8,922.55Z" transform="translate(0.5)"/><path class="cls-9" d="M1847,920.27l-4.42.46a67.74,67.74,0,0,1,0,21.92l4.42.45A67.82,67.82,0,0,0,1847,920.27Z" transform="translate(0.5)"/><path class="cls-8" d="M1820.36,923l-4.44.46a68.5,68.5,0,0,1,0,16.44l4.44.45A68.08,68.08,0,0,0,1820.36,923Z" transform="translate(0.5)"/><path class="cls-8" d="M1838.11,921.18l-4.42.46a68.32,68.32,0,0,1,0,20.09l4.42.46A67.9,67.9,0,0,0,1838.11,921.18Z" transform="translate(0.5)"/><path class="cls-9" d="M1842.53,920.73l-4.42.45a67.9,67.9,0,0,1,0,21l4.42.46A67.74,67.74,0,0,0,1842.53,920.73Z" transform="translate(0.5)"/><path class="cls-10" d="M1807,924.38l-4.44.46a68.08,68.08,0,0,1,0,13.69l4.44.46A68.61,68.61,0,0,0,1807,924.38Z" transform="translate(0.5)"/><path class="cls-10" d="M1798.13,925.3l-4.47.46a69,69,0,0,1,0,11.85l4.47.46A69.84,69.84,0,0,0,1798.13,925.3Z" transform="translate(0.5)"/><path class="cls-10" d="M1802.59,924.84l-4.46.46a69.84,69.84,0,0,1,0,12.77l4.46.46A68.08,68.08,0,0,0,1802.59,924.84Z" transform="translate(0.5)"/><path class="cls-10" d="M1793.66,925.76l-4.46.46a68.89,68.89,0,0,1,0,10.94l4.46.45A69,69,0,0,0,1793.66,925.76Z" transform="translate(0.5)"/><path class="cls-10" d="M1811.48,923.93l-4.45.45a68.61,68.61,0,0,1,0,14.61l4.45.46A69.43,69.43,0,0,0,1811.48,923.93Z" transform="translate(0.5)"/><path class="cls-8" d="M1815.92,923.47l-4.44.46a69.43,69.43,0,0,1,0,15.52l4.44.46A68.5,68.5,0,0,0,1815.92,923.47Z" transform="translate(0.5)"/><path class="cls-9" d="M1851.36,919.82l-4.41.45a67.82,67.82,0,0,1,0,22.83l4.41.45A67.56,67.56,0,0,0,1851.36,919.82Z" transform="translate(0.5)"/><path class="cls-8" d="M1829.25,922.1l-4.45.45a68.15,68.15,0,0,1,0,18.27l4.45.46A68.46,68.46,0,0,0,1829.25,922.1Z" transform="translate(0.5)"/><path class="cls-11" d="M1899.74,914.84l-4.37.45a66.19,66.19,0,0,1,0,32.79l4.37.45A65.88,65.88,0,0,0,1899.74,914.84Z" transform="translate(0.5)"/><path class="cls-11" d="M1895.37,915.29l-4.39.45a66.41,66.41,0,0,1,0,31.89l4.39.45A66.19,66.19,0,0,0,1895.37,915.29Z" transform="translate(0.5)"/><path class="cls-11" d="M1891,915.74l-4.4.45a66.25,66.25,0,0,1,0,31l4.4.45A66.41,66.41,0,0,0,1891,915.74Z" transform="translate(0.5)"/><path class="cls-11" d="M1886.58,916.19l-4.39.46a66.43,66.43,0,0,1,0,30.08l4.39.45A66.25,66.25,0,0,0,1886.58,916.19Z" transform="translate(0.5)"/><path class="cls-11" d="M1908.47,913.94l-4.37.45a65.69,65.69,0,0,1,0,34.59l4.37.45A65.62,65.62,0,0,0,1908.47,913.94Z" transform="translate(0.5)"/><path class="cls-11" d="M1904.1,914.39l-4.36.45a65.88,65.88,0,0,1,0,33.69l4.36.45A65.69,65.69,0,0,0,1904.1,914.39Z" transform="translate(0.5)"/><path class="cls-9" d="M1855.78,919.36l-4.42.46a67.56,67.56,0,0,1,0,23.73l4.42.46A67.63,67.63,0,0,0,1855.78,919.36Z" transform="translate(0.5)"/><path class="cls-9" d="M1869,918l-4.4.45a67.39,67.39,0,0,1,0,26.47l4.4.45A67.12,67.12,0,0,0,1869,918Z" transform="translate(0.5)"/><path class="cls-9" d="M1864.62,918.45l-4.42.46a67.36,67.36,0,0,1,0,25.55l4.42.46A67.39,67.39,0,0,0,1864.62,918.45Z" transform="translate(0.5)"/><path class="cls-11" d="M1882.19,916.65l-4.39.45a66.81,66.81,0,0,1,0,29.18l4.39.45A66.43,66.43,0,0,0,1882.19,916.65Z" transform="translate(0.5)"/><path class="cls-9" d="M1860.2,918.91l-4.42.45a67.63,67.63,0,0,1,0,24.65l4.42.45A67.36,67.36,0,0,0,1860.2,918.91Z" transform="translate(0.5)"/><path class="cls-11" d="M1877.8,917.1l-4.39.45a67,67,0,0,1,0,28.27l4.39.46A66.81,66.81,0,0,0,1877.8,917.1Z" transform="translate(0.5)"/><path class="cls-9" d="M1873.41,917.55,1869,918a67.12,67.12,0,0,1,0,27.37l4.39.45A67,67,0,0,0,1873.41,917.55Z" transform="translate(0.5)"/><path class="cls-8" d="M1709.5,921.64l4.44.46a68.46,68.46,0,0,0,0,19.18l-4.44.45A68.32,68.32,0,0,1,1709.5,921.64Z" transform="translate(0.5)"/><path class="cls-8" d="M1718.39,922.55l4.44.46a68.08,68.08,0,0,0,0,17.35l-4.44.46A68.15,68.15,0,0,1,1718.39,922.55Z" transform="translate(0.5)"/><path class="cls-9" d="M1696.24,920.27l4.42.46a67.74,67.74,0,0,0,0,21.92l-4.42.45A67.82,67.82,0,0,1,1696.24,920.27Z" transform="translate(0.5)"/><path class="cls-8" d="M1722.83,923l4.44.46a68.5,68.5,0,0,0,0,16.44l-4.44.45A68.08,68.08,0,0,1,1722.83,923Z" transform="translate(0.5)"/><path class="cls-8" d="M1705.08,921.18l4.42.46a68.32,68.32,0,0,0,0,20.09l-4.42.46A67.9,67.9,0,0,1,1705.08,921.18Z" transform="translate(0.5)"/><path class="cls-9" d="M1700.66,920.73l4.42.45a67.9,67.9,0,0,0,0,21l-4.42.46A67.74,67.74,0,0,1,1700.66,920.73Z" transform="translate(0.5)"/><path class="cls-10" d="M1736.16,924.38l4.44.46a68.08,68.08,0,0,0,0,13.69l-4.44.46A68.61,68.61,0,0,1,1736.16,924.38Z" transform="translate(0.5)"/><path class="cls-10" d="M1745.06,925.3l4.47.46a69,69,0,0,0,0,11.85l-4.47.46A69.84,69.84,0,0,1,1745.06,925.3Z" transform="translate(0.5)"/><path class="cls-10" d="M1740.6,924.84l4.46.46a69.84,69.84,0,0,0,0,12.77l-4.46.46A68.08,68.08,0,0,1,1740.6,924.84Z" transform="translate(0.5)"/><path class="cls-10" d="M1749.53,925.76l4.46.46a68.89,68.89,0,0,0,0,10.94l-4.46.45A69,69,0,0,1,1749.53,925.76Z" transform="translate(0.5)"/><path class="cls-10" d="M1731.71,923.93l4.45.45a68.61,68.61,0,0,0,0,14.61l-4.45.46A69.43,69.43,0,0,1,1731.71,923.93Z" transform="translate(0.5)"/><path class="cls-8" d="M1727.27,923.47l4.44.46a69.43,69.43,0,0,0,0,15.52l-4.44.46A68.5,68.5,0,0,1,1727.27,923.47Z" transform="translate(0.5)"/><path class="cls-9" d="M1691.83,919.82l4.41.45a67.82,67.82,0,0,0,0,22.83l-4.41.45A67.56,67.56,0,0,1,1691.83,919.82Z" transform="translate(0.5)"/><path class="cls-8" d="M1713.94,922.1l4.45.45a68.15,68.15,0,0,0,0,18.27l-4.45.46A68.46,68.46,0,0,1,1713.94,922.1Z" transform="translate(0.5)"/><path class="cls-11" d="M1643.45,914.84l4.37.45a66.19,66.19,0,0,0,0,32.79l-4.37.45A65.88,65.88,0,0,1,1643.45,914.84Z" transform="translate(0.5)"/><path class="cls-11" d="M1647.82,915.29l4.39.45a66.41,66.41,0,0,0,0,31.89l-4.39.45A66.19,66.19,0,0,1,1647.82,915.29Z" transform="translate(0.5)"/><path class="cls-11" d="M1652.21,915.74l4.4.45a66.25,66.25,0,0,0,0,31l-4.4.45A66.41,66.41,0,0,1,1652.21,915.74Z" transform="translate(0.5)"/><path class="cls-11" d="M1656.61,916.19l4.39.46a66.43,66.43,0,0,0,0,30.08l-4.39.45A66.25,66.25,0,0,1,1656.61,916.19Z" transform="translate(0.5)"/><path class="cls-11" d="M1634.72,913.94l4.37.45a65.69,65.69,0,0,0,0,34.59l-4.37.45A65.62,65.62,0,0,1,1634.72,913.94Z" transform="translate(0.5)"/><path class="cls-11" d="M1639.09,914.39l4.36.45a65.88,65.88,0,0,0,0,33.69l-4.36.45A65.69,65.69,0,0,1,1639.09,914.39Z" transform="translate(0.5)"/><path class="cls-9" d="M1687.41,919.36l4.42.46a67.56,67.56,0,0,0,0,23.73l-4.42.46A67.63,67.63,0,0,1,1687.41,919.36Z" transform="translate(0.5)"/><path class="cls-9" d="M1674.17,918l4.4.45a67.39,67.39,0,0,0,0,26.47l-4.4.45A67.12,67.12,0,0,1,1674.17,918Z" transform="translate(0.5)"/><path class="cls-9" d="M1678.57,918.45l4.42.46a67.36,67.36,0,0,0,0,25.55l-4.42.46A67.39,67.39,0,0,1,1678.57,918.45Z" transform="translate(0.5)"/><path class="cls-11" d="M1661,916.65l4.39.45a66.81,66.81,0,0,0,0,29.18l-4.39.45A66.43,66.43,0,0,1,1661,916.65Z" transform="translate(0.5)"/><path class="cls-9" d="M1683,918.91l4.42.45a67.63,67.63,0,0,0,0,24.65l-4.42.45A67.36,67.36,0,0,1,1683,918.91Z" transform="translate(0.5)"/><path class="cls-11" d="M1665.39,917.1l4.39.45a67,67,0,0,0,0,28.27l-4.39.46A66.81,66.81,0,0,1,1665.39,917.1Z" transform="translate(0.5)"/><path class="cls-9" d="M1669.78,917.55l4.39.45a67.12,67.12,0,0,0,0,27.37l-4.39.45A67,67,0,0,1,1669.78,917.55Z" transform="translate(0.5)"/><line class="cls-7" y1="720" x2="1296" y2="720"/><line class="cls-7" x1="1270.76" y1="720" x2="1920" y2="720"/><line class="cls-7" x1="1111.5" y1="540" x2="1920" y2="540"/><line class="cls-7" x1="1269.36" y1="360" x2="1920" y2="360"/><line class="cls-7" x1="1570.91" x2="1570.91" y2="1080"/><line class="cls-7" x1="1396.36" x2="1396.36" y2="1080"/><line class="cls-7" x1="1221.82" x2="1221.82" y2="797"/><line class="cls-7" x1="1047.27" x2="1047.27" y2="425"/><line class="cls-7" x1="872.73" x2="872.73" y2="425"/><line class="cls-7" x1="698.18" x2="698.18" y2="792"/><line class="cls-7" x1="523.64" x2="523.64" y2="1080"/><line class="cls-7" x1="349.09" x2="349.09" y2="1080"/><line class="cls-7" x1="310.02" y1="900" x2="1610.02" y2="900"/><path class="cls-7" d="M1270.26,720" transform="translate(0.5)"/><path class="cls-7" d="M649.94,720" transform="translate(0.5)"/><path class="cls-7" d="M1317.34,540" transform="translate(0.5)"/><path class="cls-7" d="M602.51,540" transform="translate(0.5)"/><line class="cls-7" y1="540" x2="813.5" y2="540"/><path class="cls-7" d="M1268.86,360" transform="translate(0.5)"/><path class="cls-7" d="M651.08,360" transform="translate(0.5)"/><line class="cls-7" y1="360" x2="1296" y2="360"/><path class="cls-7" d="M1919.5,180" transform="translate(0.5)"/><line class="cls-7" x1="310.54" y1="180" x2="1610.54" y2="180"/><path class="cls-7" d="M1745,720.26" transform="translate(0.5)"/><line class="cls-7" x1="1745.45" y1="315.04" x2="1745.45" y2="765.04"/><path class="cls-7" d="M1745,359.82" transform="translate(0.5)"/><line class="cls-7" x1="1221.82" y1="785.31" x2="1221.82" y2="1080"/><path class="cls-7" d="M1221.32,785.31" transform="translate(0.5)"/><path class="cls-7" d="M1221.32,296" transform="translate(0.5)"/><line class="cls-7" x1="1047.27" y1="658" x2="1047.27" y2="1080"/><line class="cls-7" x1="872.73" y1="657" x2="872.73" y2="1080"/><path class="cls-7" d="M872.23,889.34" transform="translate(0.5)"/><path class="cls-7" d="M872.23,194.12" transform="translate(0.5)"/><line class="cls-7" x1="698.18" y1="783.13" x2="698.18" y2="1080"/><path class="cls-7" d="M697.68,783.13" transform="translate(0.5)"/><path class="cls-7" d="M697.68,298.85" transform="translate(0.5)"/><path class="cls-7" d="M174.05,720.31" transform="translate(0.5)"/><line class="cls-7" x1="174.55" y1="314.8" x2="174.55" y2="764.8"/><path class="cls-7" d="M174.05,359.29" transform="translate(0.5)"/><text class="cls-12" transform="translate(624.8 574.03) scale(1.08 1.51)">PLEASE S<tspan class="cls-13" x="311.5" y="0">T</tspan><tspan x="350.33" y="0">AND BY</tspan></text><line class="cls-14" x1="923.85" y1="860.4" x2="1004.85" y2="860.4"/><line class="cls-14" x1="923.85" y1="844.2" x2="1004.85" y2="844.2"/><line class="cls-14" x1="923.85" y1="844.2" x2="1004.85" y2="844.2"/><line class="cls-14" x1="923.85" y1="828" x2="1004.85" y2="828"/><line class="cls-14" x1="923.85" y1="828" x2="1004.85" y2="828"/><line class="cls-14" x1="923.85" y1="811.8" x2="1004.85" y2="811.8"/><line class="cls-14" x1="923.85" y1="811.8" x2="1004.85" y2="811.8"/><line class="cls-14" x1="923.85" y1="795.6" x2="1004.85" y2="795.6"/><line class="cls-14" x1="937.35" y1="795.6" x2="991.35" y2="795.6"/><line class="cls-14" x1="923.85" y1="779.4" x2="1004.85" y2="779.4"/><line class="cls-14" x1="910.35" y1="779.4" x2="1018.35" y2="779.4"/><line class="cls-14" x1="923.85" y1="763.2" x2="1004.85" y2="763.2"/><line class="cls-14" x1="883.35" y1="763.2" x2="1045.35" y2="763.2"/><line class="cls-14" x1="923.85" y1="747" x2="1004.85" y2="747"/><line class="cls-14" x1="856.35" y1="747" x2="1072.35" y2="747"/><line class="cls-14" x1="829.35" y1="730.8" x2="1099.35" y2="730.8"/><path class="cls-15" d="M1192.24,770.85,1181,759.6l-26.83-26.83-32.43-32.43-28.18-28.18c-4.53-4.53-9-9.22-13.62-13.61l-.19-.2a1.5,1.5,0,0,0-2.12,2.13l11.25,11.25,26.83,26.82L1148.13,731l28.18,28.18c4.53,4.53,9,9.22,13.62,13.61l.19.2a1.5,1.5,0,0,0,2.12-2.13Z" transform="translate(0.5)"/><path class="cls-15" d="M839.12,658.35l-11.25,11.26L801,696.43l-32.43,32.44-28.18,28.18c-4.53,4.53-9.22,9-13.62,13.61-.06.07-.13.13-.19.19a1.5,1.5,0,0,0,2.12,2.13L740,761.72l26.83-26.82,32.43-32.44,28.19-28.18c4.53-4.53,9.22-8.95,13.61-13.61l.19-.19a1.5,1.5,0,0,0-2.12-2.13Z" transform="translate(0.5)"/><path class="cls-15" d="M1189.59,307.64l-11.25,11.25-26.83,26.83-32.43,32.43-28.19,28.18c-4.53,4.53-9.22,8.95-13.61,13.62l-.19.19a1.5,1.5,0,0,0,2.12,2.12L1090.46,411l26.83-26.83,32.43-32.43,28.18-28.18c4.53-4.53,9.22-8.95,13.62-13.62l.19-.19a1.5,1.5,0,0,0-2.12-2.12Z" transform="translate(0.5)"/><path class="cls-15" d="M726.62,309.48l11.25,11.25,26.83,26.82L797.13,380l28.18,28.18c4.53,4.53,9,9.22,13.62,13.61l.19.2a1.5,1.5,0,0,0,2.12-2.13L830,408.6l-26.83-26.83-32.43-32.43-28.18-28.18c-4.53-4.53-8.95-9.22-13.62-13.61l-.19-.2a1.5,1.5,0,0,0-2.12,2.13Z" transform="translate(0.5)"/></svg>