<svg id="Vrstva_1" data-name="Vrstva 1" xmlns="http://www.w3.org/2000/svg" viewBox="0 0 333.01 333.01"><defs><style>.cls-1{fill:#191726;}.cls-2{fill:#1a1a26;}</style></defs><title>R-logo</title><path class="cls-1" d="M148,118.4c5.79,0,5.8-9,0-9s-5.8,9,0,9Z" transform="translate(-143.5 -68.5)"/><path class="cls-2" d="M143.5,113.9V397a4.55,4.55,0,0,0,6.77,3.89l103.88-57.07,151.42-83.19c15.1-8.29,30.83-15.82,43.1-28.24,32.94-33.36,37-87.71,8.72-125.25a96.89,96.89,0,0,0-52.13-35.39c-9.77-2.6-19.7-3.25-29.74-3.25H148a4.55,4.55,0,0,0-3.18,7.68l32.3,32.31,77.22,77.22,93.75,93.74,80.76,80.76,26.66,26.66c4.22,4.22,8.27,8.81,12.76,12.76.19.17.37.37.55.55,4.1,4.1,10.46-2.26,6.36-6.36l-32.3-32.31-77.22-77.22-93.75-93.74-80.76-80.76L164.49,83.13c-4.05-4-8.08-9.4-12.76-12.76a5.71,5.71,0,0,1-.55-.55L148,77.5H362.13c5.84,0,11.67,0,17.51,0a88.57,88.57,0,0,1,47.62,13.67c38.93,24.8,51.6,77.46,28.41,117.36a89.41,89.41,0,0,1-34.53,33.28l-12.88,7.07L266,327.05,147.79,392l-2.06,1.13L152.5,397V113.9c0-5.79-9-5.8-9,0Z" transform="translate(-143.5 -68.5)"/></svg>