<svg id="Vrstva_1" data-name="Vrstva 1" xmlns="http://www.w3.org/2000/svg" viewBox="0 0 798.5 580"><defs><style>.cls-1,.cls-2,.cls-3,.cls-4,.cls-5,.cls-6,.cls-7{fill:none;}.cls-1,.cls-5{stroke:#191726;}.cls-1,.cls-2,.cls-3,.cls-4,.cls-5,.cls-6,.cls-7,.cls-8{stroke-linecap:round;}.cls-1,.cls-2,.cls-4,.cls-5,.cls-6,.cls-7,.cls-8{stroke-linejoin:round;}.cls-1,.cls-2,.cls-3{stroke-width:8px;}.cls-2,.cls-6{stroke:#1a1a26;}.cls-3,.cls-4,.cls-7,.cls-8{stroke:#000026;}.cls-3{stroke-miterlimit:10;}.cls-4,.cls-5,.cls-6{stroke-width:6px;}.cls-7,.cls-8{stroke-width:5px;}</style></defs><title>R-U-curious</title><path class="cls-1" d="M148,113.9" transform="translate(-144 -69)"/><path class="cls-2" d="M148,113.9V397L424.34,245.18A91.73,91.73,0,0,0,380.91,73H148L472,397" transform="translate(-144 -69)"/><path class="cls-3" d="M938.5,85.5V241.27c0,92.53-72.9,168.23-162,168.23h0c-89.1,0-162-75.7-162-168.23V85.5" transform="translate(-144 -69)"/><path class="cls-4" d="M232.49,635.15H191.87C167.74,635.15,148,613,148,585.88h0c0-27.1,19.74-49.28,43.87-49.28h40.62" transform="translate(-144 -69)"/><path class="cls-4" d="M342.76,537.12V584.5c0,28.15-19,51.17-42.24,51.17h0c-23.23,0-42.24-23-42.24-51.17V537.12" transform="translate(-144 -69)"/><path class="cls-5" d="M377.71,549.31" transform="translate(-144 -69)"/><path class="cls-6" d="M377.71,549.31v86.11l72.06-46.18c7.66-4.91,12.43-14.31,12.43-24.51,0-15.33-10.62-27.78-23.76-27.86H377.71l84.49,98.55" transform="translate(-144 -69)"/><line class="cls-6" x1="353.51" y1="490.94" x2="353.51" y2="570.82"/><path class="cls-6" d="M497.61,536.9" transform="translate(-144 -69)"/><rect class="cls-4" x="389.08" y="468.12" width="84.49" height="104.78" rx="40.37"/><path class="cls-4" d="M737.19,542.83v47.38c0,28.14-19,51.17-42.25,51.17h0c-23.23,0-42.24-23-42.24-51.17V542.83" transform="translate(-144 -69)"/><path class="cls-7" d="M826.12,542.31H799.58c-15.76,0-28.65,11.11-28.65,24.7a21.76,21.76,0,0,0,2.1,9.27,25,25,0,0,0,5.79,7.71,30.56,30.56,0,0,0,16.46,7.27c9.47,1.32,17.52,4,23,10.74a23,23,0,0,1,4.53,8.79,21.15,21.15,0,0,1,.69,5.37c0,13.58-12.9,24.7-28.66,24.7H768.31" transform="translate(-144 -69)"/><path class="cls-4" d="M894.14,542h19.22c11.41,0,20.75,8.69,20.75,19.3a17.92,17.92,0,0,1-1.53,7.24,19.19,19.19,0,0,1-4.19,6,21.42,21.42,0,0,1-11.92,5.68c-6.86,1-12.69,3.13-16.66,8.39a18.76,18.76,0,0,0-3.28,6.86,18.07,18.07,0,0,0-.5,4.2c0,10.61,9.34,19.3,20.76,19.3H936" transform="translate(-144 -69)"/><path class="cls-6" d="M915.28,640.93" transform="translate(-144 -69)"/><ellipse class="cls-8" cx="353.17" cy="467.5" rx="4.98" ry="5"/><ellipse class="cls-8" cx="770.58" cy="572.5" rx="4.98" ry="5"/></svg>