<svg id="Vrstva_1" data-name="Vrstva 1" xmlns="http://www.w3.org/2000/svg" viewBox="0 0 332 1915.889"><defs><style>.cls-1,.cls-2{fill:none;stroke-linecap:round;stroke-width:8px;}.cls-1{stroke:#1a1a26;stroke-linejoin:round;}.cls-2{stroke:#000026;stroke-miterlimit:10;}</style></defs><title>r-u-curious-logo</title><path class="cls-1" d="M373.5,114V397L648.93,245.683c28.9-15.876,47.718-45.756,48.541-78.718A91.624,91.624,0,0,0,606.412,73l-.535,0H373.5l324,324" transform="translate(-369.5 -69)"/><path class="cls-2" d="M697.5,538.25V693.519c0,92.527-72.9,168.231-162,168.231h0c-89.1,0-162-75.7-162-168.231V538.25" transform="translate(-369.5 -69)"/><path d="M569.575,1005.537l-6.883,4.278q-8.92-11.843-24.342-11.843-12.327,0-20.471,7.928a25.879,25.879,0,0,0-8.146,19.264,27.348,27.348,0,0,0,3.747,13.875,26.275,26.275,0,0,0,10.283,10.1,29.893,29.893,0,0,0,14.648,3.593q14.865,0,24.281-11.844l6.883,4.527a32.5,32.5,0,0,1-12.991,11.3,41.492,41.492,0,0,1-18.573,4.017q-16,0-26.541-10.17a33.082,33.082,0,0,1-10.541-24.743,35.342,35.342,0,0,1,4.929-18.2A34.746,34.746,0,0,1,519.407,994.5a39.53,39.53,0,0,1,19.286-4.713,41.161,41.161,0,0,1,12.93,2.047,35.959,35.959,0,0,1,10.573,5.332A29.035,29.035,0,0,1,569.575,1005.537Z" transform="translate(-369.5 -69)"/><path d="M505.455,1118.522h8.682v31.5q0,11.535,1.242,15.875a17.691,17.691,0,0,0,7.111,9.8,21.578,21.578,0,0,0,12.514,3.6,21.123,21.123,0,0,0,12.327-3.5,17.921,17.921,0,0,0,6.987-9.209q1.305-3.9,1.3-16.557v-31.5h8.868v33.115q0,13.952-3.256,21.022a24.861,24.861,0,0,1-9.8,11.069q-6.545,4-16.4,4t-16.464-4a24.661,24.661,0,0,1-9.859-11.163q-3.256-7.161-3.256-21.548Z" transform="translate(-369.5 -69)"/><path d="M522.787,1245.522h8.868v9.86a31.132,31.132,0,0,1,8.372-8.712,16.506,16.506,0,0,1,9.178-2.884,15.849,15.849,0,0,1,7.69,2.295l-4.528,7.316a12.094,12.094,0,0,0-4.589-1.177,12.554,12.554,0,0,0-8.372,3.565q-4.03,3.567-6.138,11.069-1.614,5.768-1.613,23.317v22.82h-8.868Z" transform="translate(-369.5 -69)"/><path d="M535.47,1344.741a7.184,7.184,0,1,1-5,2.109A6.812,6.812,0,0,1,535.47,1344.741Zm-4.311,27.781h8.682v67.469h-8.682Z" transform="translate(-369.5 -69)"/><path d="M535.53,1497.786a33.42,33.42,0,0,1,25.843,11.286,36.225,36.225,0,0,1-.528,49.082q-9.848,10.573-25.315,10.574-15.529,0-25.376-10.574a36.146,36.146,0,0,1-.528-49.02Q519.875,1497.787,535.53,1497.786Zm-.03,8.5a25.044,25.044,0,0,0-18.607,8,26.737,26.737,0,0,0-7.779,19.348,27.429,27.429,0,0,0,3.547,13.642,25.119,25.119,0,0,0,9.584,9.767,27.25,27.25,0,0,0,26.51,0,25.139,25.139,0,0,0,9.584-9.767,27.44,27.44,0,0,0,3.547-13.642,26.681,26.681,0,0,0-7.811-19.348A25.076,25.076,0,0,0,535.5,1506.282Z" transform="translate(-369.5 -69)"/><path d="M505.455,1626.522h8.682v31.5q0,11.535,1.242,15.875a17.691,17.691,0,0,0,7.111,9.8,21.578,21.578,0,0,0,12.514,3.6,21.123,21.123,0,0,0,12.327-3.5,17.921,17.921,0,0,0,6.987-9.209q1.305-3.9,1.3-16.557v-31.5h8.868v33.115q0,13.952-3.256,21.022a24.861,24.861,0,0,1-9.8,11.069q-6.545,4-16.4,4t-16.464-4a24.661,24.661,0,0,1-9.859-11.163q-3.256-7.161-3.256-21.548Z" transform="translate(-369.5 -69)"/><path d="M554.444,1760.9l-5.58,5.768q-6.965-6.759-13.616-6.76a10.288,10.288,0,0,0-7.243,2.791,8.617,8.617,0,0,0-3.016,6.512,9.644,9.644,0,0,0,2.486,6.263q2.485,3.039,10.44,7.131,9.695,5.022,13.175,9.674a17.633,17.633,0,0,1,3.417,10.6,19.028,19.028,0,0,1-5.839,14.076,19.927,19.927,0,0,1-14.594,5.768,25.5,25.5,0,0,1-11.148-2.543,24.2,24.2,0,0,1-8.788-7.007l5.457-6.2q6.649,7.5,14.109,7.5a12.712,12.712,0,0,0,8.888-3.347,10.349,10.349,0,0,0,3.667-7.876,10.1,10.1,0,0,0-2.423-6.636q-2.424-2.85-10.938-7.193-9.135-4.711-12.429-9.3a17.521,17.521,0,0,1-3.293-10.48,17.044,17.044,0,0,1,5.249-12.775,18.282,18.282,0,0,1,13.262-5.085Q545,1751.786,554.444,1760.9Z" transform="translate(-369.5 -69)"/><path d="M517.579,1916.738h-9.054q.123-12.525,7.473-19.813t19.689-7.286q12.153,0,19.1,6.138a19.542,19.542,0,0,1,6.945,15.256,17.34,17.34,0,0,1-1.891,8.03,19.8,19.8,0,0,1-5.736,6.635q-3.846,2.946-13.457,6.729-12.092,4.836-14.634,7.193a7.67,7.67,0,0,0-2.605,5.829q0,3.6,3.5,6.449a13.923,13.923,0,0,0,9.085,2.853q6.138,0,9.426-3.132t4.03-10.015h9.054q-.435,10.357-6.418,16.092T536,1963.433q-10.046,0-16-5.209a16.4,16.4,0,0,1-5.953-12.837,15.642,15.642,0,0,1,1.644-7.038,15.241,15.241,0,0,1,4.651-5.55q3.008-2.232,11.316-5.643,13.4-5.456,17.178-8.185a9.108,9.108,0,0,0,3.721-7.815,11.37,11.37,0,0,0-4.55-9.115q-4.549-3.72-12.163-3.721-9.287,0-14.424,6.139Q517.826,1908.74,517.579,1916.738Zm18.045,52.772a7.621,7.621,0,0,1,7.628,7.689,7.453,7.453,0,0,1-2.232,5.426,7.561,7.561,0,0,1-10.791,0,7.749,7.749,0,0,1,0-10.883A7.354,7.354,0,0,1,535.624,1969.51Z" transform="translate(-369.5 -69)"/></svg>