<svg id="Vrstva_1" data-name="Vrstva 1" xmlns="http://www.w3.org/2000/svg" viewBox="0 0 253.81 253.82"><defs><style>.cls-1{font-size:41px;font-family:Rockwell;}.cls-1,.cls-2{fill:#f26d3d;}</style></defs><title>scroll-up-icon</title><text class="cls-1" transform="translate(108.65 35.45) rotate(-3.99)">T</text><text class="cls-1" transform="translate(135.8 33.37) rotate(15.48)">O</text><text class="cls-1" transform="translate(170.94 45.22) rotate(32.87)">-</text><text class="cls-1" transform="matrix(0.68, 0.74, -0.74, 0.68, 187.07, 55.68)">T</text><text class="cls-1" transform="translate(205.62 75.6) rotate(66.95)">O</text><text class="cls-1" transform="translate(218.63 110.14) rotate(86.93)">P</text><text class="cls-1" transform="translate(219 138.23) rotate(101.43)">-</text><text class="cls-1" transform="translate(215.16 157.06) rotate(116.14)">T</text><text class="cls-1" transform="translate(203.32 181.55) rotate(135.64)">O</text><text class="cls-1" transform="translate(175.41 206.02) rotate(152.92)">-</text><text class="cls-1" transform="translate(158.3 214.74) rotate(167.62)">T</text><text class="cls-1" transform="translate(131.76 220.72) rotate(-172.96)">O</text><text class="cls-1" transform="translate(95.35 214.68) rotate(-152.94)">P</text><text class="cls-1" transform="matrix(-0.75, -0.66, 0.66, -0.75, 70.88, 200.87)">-</text><text class="cls-1" transform="translate(56.52 188.07) rotate(-123.81)">T</text><text class="cls-1" transform="translate(41.24 165.58) rotate(-104.18)">O</text><text class="cls-1" transform="matrix(0.05, -1, 1, 0.05, 34.15, 129.15)">-</text><text class="cls-1" transform="translate(35.19 109.95) rotate(-72.3)">T</text><text class="cls-1" transform="matrix(0.61, -0.8, 0.8, 0.61, 43.3, 84)">O</text><text class="cls-1" transform="matrix(0.84, -0.54, 0.54, 0.84, 66.85, 55.57)">P</text><text class="cls-1" transform="matrix(0.95, -0.31, 0.31, 0.95, 91.05, 41.3)">-</text><path class="cls-2" d="M278.5,238c2.91,0,5.77,4.14,7.31,10.46A49,49,0,0,0,279,248a50,50,0,0,0-7.85.61c1.54-6.4,4.41-10.61,7.35-10.61m0-1c-3.84,0-7.14,5.27-8.64,12.86A47.46,47.46,0,0,1,279,249a48.19,48.19,0,0,1,8.1.67c-1.51-7.49-4.79-12.67-8.6-12.67Z" transform="translate(-151.6 -131.59)"/><path class="cls-2" d="M270.92,268.35a50.67,50.67,0,0,0,15.12.16c-1.47,6.93-4.43,11.49-7.54,11.49s-6.12-4.72-7.58-11.65m-1.25-1.25c1.39,8.14,4.82,13.9,8.83,13.9s7.38-5.67,8.8-13.7a48.19,48.19,0,0,1-8.3.7,46.82,46.82,0,0,1-9.33-.9Z" transform="translate(-151.6 -131.59)"/><path class="cls-2" d="M268.61,251.15A50,50,0,0,0,268,259a49,49,0,0,0,.46,6.81c-6.32-1.54-10.46-4.4-10.46-7.31s4.21-5.81,10.61-7.35m1.25-1.29c-7.59,1.5-12.86,4.8-12.86,8.64s5.18,7.09,12.67,8.6A48.19,48.19,0,0,1,269,259a47.46,47.46,0,0,1,.86-9.14Z" transform="translate(-151.6 -131.59)"/><path class="cls-2" d="M288.35,250.92c6.93,1.46,11.65,4.48,11.65,7.58s-4.56,6.07-11.49,7.54a50.67,50.67,0,0,0-.16-15.12m-1.25-1.25A46.82,46.82,0,0,1,288,259a48.19,48.19,0,0,1-.7,8.3c8-1.42,13.7-4.82,13.7-8.8s-5.76-7.44-13.9-8.83Z" transform="translate(-151.6 -131.59)"/><path class="cls-2" d="M279,250a47.56,47.56,0,0,1,7.25.54A46.23,46.23,0,0,1,287,259a47.3,47.3,0,0,1-.57,7.43A47.3,47.3,0,0,1,279,267a46.23,46.23,0,0,1-8.46-.75A47.56,47.56,0,0,1,270,259a46.14,46.14,0,0,1,.72-8.28A46.14,46.14,0,0,1,279,250m0-1a47.46,47.46,0,0,0-9.14.86A47.46,47.46,0,0,0,269,259a48.19,48.19,0,0,0,.67,8.1,46.82,46.82,0,0,0,9.33.9,48.19,48.19,0,0,0,8.3-.7,48.19,48.19,0,0,0,.7-8.3,46.82,46.82,0,0,0-.9-9.33A48.19,48.19,0,0,0,279,249Z" transform="translate(-151.6 -131.59)"/></svg>