<svg id="Vrstva_1" data-name="Vrstva 1" xmlns="http://www.w3.org/2000/svg" viewBox="0 0 297.68 297.65"><defs><style>.cls-1{font-size:29px;font-family:Rockwell;}.cls-1,.cls-2{fill:#f26d3d;}</style></defs><title>scroll-down-icon</title><text class="cls-1" transform="translate(123.4 26.69) rotate(-8.16)">S</text><text class="cls-1" transform="translate(142.02 24.04) rotate(1.89)">C</text><text class="cls-1" transform="translate(167.35 25.39) rotate(12.49)">R</text><text class="cls-1" transform="translate(187.19 29.78) rotate(23.21)">O</text><text class="cls-1" transform="matrix(0.83, 0.55, -0.55, 0.83, 211.34, 40.87)">L</text><text class="cls-1" transform="matrix(0.74, 0.67, -0.67, 0.74, 226.71, 51.39)">L</text><text class="cls-1" transform="matrix(0.65, 0.76, -0.76, 0.65, 240.31, 64.22)">-</text><text class="cls-1" transform="matrix(0.52, 0.85, -0.85, 0.52, 249.37, 74.62)">D</text><text class="cls-1" transform="translate(261.99 95.54) rotate(70.11)">O</text><text class="cls-1" transform="matrix(0.13, 0.99, -0.99, 0.13, 270.49, 118.5)">W</text><text class="cls-1" transform="translate(273.76 150.52) rotate(95.49)">N</text><text class="cls-1" transform="translate(270.77 174.65) rotate(104.27)">-</text><text class="cls-1" transform="translate(267.29 188.05) rotate(111.87)">S</text><text class="cls-1" transform="matrix(-0.53, 0.85, -0.85, -0.53, 260.28, 205.49)">C</text><text class="cls-1" transform="matrix(-0.68, 0.74, -0.74, -0.68, 246.36, 226.73)">R</text><text class="cls-1" transform="translate(232.61 241.67) rotate(143.23)">O</text><text class="cls-1" transform="translate(210.9 257.06) rotate(153.6)">L</text><text class="cls-1" transform="translate(194.11 265.1) rotate(162.21)">L</text><text class="cls-1" transform="matrix(-0.98, 0.18, -0.18, -0.98, 176.22, 270.43)">-</text><text class="cls-1" transform="translate(162.67 273.02) rotate(178.53)">D</text><text class="cls-1" transform="matrix(-0.98, -0.18, 0.18, -0.98, 138.25, 273.44)">O</text><text class="cls-1" transform="translate(114.08 269.3) rotate(-157.24)">W</text><text class="cls-1" transform="matrix(-0.81, -0.58, 0.58, -0.81, 84.74, 256.1)">N</text><text class="cls-1" transform="matrix(-0.71, -0.7, 0.7, -0.71, 65.4, 241.38)">-</text><text class="cls-1" transform="translate(55.54 231.63) rotate(-128.09)">S</text><text class="cls-1" transform="matrix(-0.47, -0.88, 0.88, -0.47, 43.94, 216.81)">C</text><text class="cls-1" transform="translate(32.52 194.18) rotate(-107.26)">R</text><text class="cls-1" transform="matrix(-0.11, -0.99, 0.99, -0.11, 26.49, 174.78)">O</text><text class="cls-1" transform="translate(24.12 148.28) rotate(-86.33)">L</text><text class="cls-1" transform="matrix(0.21, -0.98, 0.98, 0.21, 25.57, 129.71)">L</text><text class="cls-1" transform="matrix(0.34, -0.94, 0.94, 0.34, 29.91, 111.53)">-</text><text class="cls-1" transform="translate(34.44 98.52) rotate(-61.36)">D</text><text class="cls-1" transform="translate(46.34 77.2) rotate(-49.69)">O</text><text class="cls-1" transform="translate(62.07 58.39) rotate(-37.21)">W</text><text class="cls-1" transform="translate(88.16 39.6) rotate(-24.3)">N</text><text class="cls-1" transform="matrix(0.96, -0.27, 0.27, 0.96, 110.6, 30.21)">-</text><path class="cls-2" d="M278.5,238c2.91,0,5.77,4.14,7.31,10.46A49,49,0,0,0,279,248a50,50,0,0,0-7.85.61c1.54-6.4,4.41-10.61,7.35-10.61m0-1c-3.84,0-7.14,5.27-8.64,12.86A47.46,47.46,0,0,1,279,249a48.19,48.19,0,0,1,8.1.67c-1.51-7.49-4.79-12.67-8.6-12.67Z" transform="translate(-130.66 -110.66)"/><path class="cls-2" d="M270.92,268.35a50.67,50.67,0,0,0,15.12.16c-1.47,6.93-4.43,11.49-7.54,11.49s-6.12-4.72-7.58-11.65m-1.25-1.25c1.39,8.14,4.82,13.9,8.83,13.9s7.38-5.67,8.8-13.7a48.19,48.19,0,0,1-8.3.7,46.82,46.82,0,0,1-9.33-.9Z" transform="translate(-130.66 -110.66)"/><path class="cls-2" d="M268.61,251.15A50,50,0,0,0,268,259a49,49,0,0,0,.46,6.81c-6.32-1.54-10.46-4.4-10.46-7.31s4.21-5.81,10.61-7.35m1.25-1.29c-7.59,1.5-12.86,4.8-12.86,8.64s5.18,7.09,12.67,8.6A48.19,48.19,0,0,1,269,259a47.46,47.46,0,0,1,.86-9.14Z" transform="translate(-130.66 -110.66)"/><path class="cls-2" d="M288.35,250.92c6.93,1.46,11.65,4.48,11.65,7.58s-4.56,6.07-11.49,7.54a50.67,50.67,0,0,0-.16-15.12m-1.25-1.25A46.82,46.82,0,0,1,288,259a48.19,48.19,0,0,1-.7,8.3c8-1.42,13.7-4.82,13.7-8.8s-5.76-7.44-13.9-8.83Z" transform="translate(-130.66 -110.66)"/><path class="cls-2" d="M279,250a47.56,47.56,0,0,1,7.25.54A46.23,46.23,0,0,1,287,259a47.3,47.3,0,0,1-.57,7.43A47.3,47.3,0,0,1,279,267a46.23,46.23,0,0,1-8.46-.75A47.56,47.56,0,0,1,270,259a46.14,46.14,0,0,1,.72-8.28A46.14,46.14,0,0,1,279,250m0-1a47.46,47.46,0,0,0-9.14.86A47.46,47.46,0,0,0,269,259a48.19,48.19,0,0,0,.67,8.1,46.82,46.82,0,0,0,9.33.9,48.19,48.19,0,0,0,8.3-.7,48.19,48.19,0,0,0,.7-8.3,46.82,46.82,0,0,0-.9-9.33A48.19,48.19,0,0,0,279,249Z" transform="translate(-130.66 -110.66)"/></svg>