<svg id="Vrstva_1" data-name="Vrstva 1" xmlns="http://www.w3.org/2000/svg" viewBox="0 0 322.83 322.87"><defs><style>.cls-1{font-size:44px;fill:#1c1818;font-family:Rockwell;}.cls-2{fill:#161313;}</style></defs><title>scroll-down-icon</title><text class="cls-1" transform="translate(136.98 38.77) rotate(-5.84)">S</text><text class="cls-1" transform="translate(165.06 35.87) rotate(9.24)">C</text><text class="cls-1" transform="matrix(0.9, 0.43, -0.43, 0.9, 202.46, 43.1)">R</text><text class="cls-1" transform="translate(230.08 56.08) rotate(41.18)">O</text><text class="cls-1" transform="matrix(0.55, 0.84, -0.84, 0.55, 259.17, 83.48)">L</text><text class="cls-1" transform="matrix(0.35, 0.94, -0.94, 0.35, 274.07, 107.13)">L</text><text class="cls-1" transform="translate(283.09 133.77) rotate(80.84)">-</text><text class="cls-1" transform="translate(286.73 154.15) rotate(93.96)">D</text><text class="cls-1" transform="translate(283.75 190.7) rotate(111.53)">O</text><text class="cls-1" transform="matrix(-0.65, 0.76, -0.76, -0.65, 270.63, 225.16)">W</text><text class="cls-1" transform="matrix(-0.86, 0.51, -0.51, -0.86, 238.07, 260.82)">N</text><text class="cls-1" transform="translate(205.81 278.05) rotate(162.76)">-</text><text class="cls-1" transform="translate(185.89 284.09) rotate(174.14)">S</text><text class="cls-1" transform="matrix(-0.99, -0.16, 0.16, -0.99, 157.8, 287)">C</text><text class="cls-1" transform="matrix(-0.9, -0.43, 0.43, -0.9, 120.4, 279.77)">R</text><text class="cls-1" transform="translate(92.76 266.79) rotate(-138.82)">O</text><text class="cls-1" transform="translate(63.68 239.41) rotate(-123.38)">L</text><text class="cls-1" transform="translate(48.77 215.74) rotate(-110.48)">L</text><text class="cls-1" transform="matrix(-0.16, -0.99, 0.99, -0.16, 39.76, 189.12)">-</text><text class="cls-1" transform="translate(36.11 168.74) rotate(-86.06)">D</text><text class="cls-1" transform="translate(39.08 132.19) rotate(-68.48)">O</text><text class="cls-1" transform="matrix(0.65, -0.76, 0.76, 0.65, 52.2, 97.73)">W</text><text class="cls-1" transform="matrix(0.86, -0.51, 0.51, 0.86, 84.75, 62.06)">N</text><text class="cls-1" transform="translate(117 44.83) rotate(-17.26)">-</text><path class="cls-2" d="M278.5,238c2.91,0,5.77,4.14,7.31,10.46A49,49,0,0,0,279,248a50,50,0,0,0-7.85.61c1.54-6.4,4.41-10.61,7.35-10.61m0-1c-3.84,0-7.14,5.27-8.64,12.86A47.46,47.46,0,0,1,279,249a48.19,48.19,0,0,1,8.1.67c-1.51-7.49-4.79-12.67-8.6-12.67Z" transform="translate(-118.08 -98.07)"/><path class="cls-2" d="M270.92,268.35a50.67,50.67,0,0,0,15.12.16c-1.47,6.93-4.43,11.49-7.54,11.49s-6.12-4.72-7.58-11.65m-1.25-1.25c1.39,8.14,4.82,13.9,8.83,13.9s7.38-5.67,8.8-13.7a48.19,48.19,0,0,1-8.3.7,46.82,46.82,0,0,1-9.33-.9Z" transform="translate(-118.08 -98.07)"/><path class="cls-2" d="M268.61,251.15A50,50,0,0,0,268,259a49,49,0,0,0,.46,6.81c-6.32-1.54-10.46-4.4-10.46-7.31s4.21-5.81,10.61-7.35m1.25-1.29c-7.59,1.5-12.86,4.8-12.86,8.64s5.18,7.09,12.67,8.6A48.19,48.19,0,0,1,269,259a47.46,47.46,0,0,1,.86-9.14Z" transform="translate(-118.08 -98.07)"/><path class="cls-2" d="M288.35,250.92c6.93,1.46,11.65,4.48,11.65,7.58s-4.56,6.07-11.49,7.54a50.67,50.67,0,0,0-.16-15.12m-1.25-1.25A46.82,46.82,0,0,1,288,259a48.19,48.19,0,0,1-.7,8.3c8-1.42,13.7-4.82,13.7-8.8s-5.76-7.44-13.9-8.83Z" transform="translate(-118.08 -98.07)"/><path class="cls-2" d="M279,250a47.56,47.56,0,0,1,7.25.54A46.23,46.23,0,0,1,287,259a47.3,47.3,0,0,1-.57,7.43A47.3,47.3,0,0,1,279,267a46.23,46.23,0,0,1-8.46-.75A47.56,47.56,0,0,1,270,259a46.14,46.14,0,0,1,.72-8.28A46.14,46.14,0,0,1,279,250m0-1a47.46,47.46,0,0,0-9.14.86A47.46,47.46,0,0,0,269,259a48.19,48.19,0,0,0,.67,8.1,46.82,46.82,0,0,0,9.33.9,48.19,48.19,0,0,0,8.3-.7,48.19,48.19,0,0,0,.7-8.3,46.82,46.82,0,0,0-.9-9.33A48.19,48.19,0,0,0,279,249Z" transform="translate(-118.08 -98.07)"/></svg>