<svg id="Vrstva_1" data-name="Vrstva 1" xmlns="http://www.w3.org/2000/svg" viewBox="0 0 202.75 60.61"><defs><style>.cls-1{fill:#1a1a26;}</style></defs><title>view-icon</title><path class="cls-1" d="M111.24,152.79,48.62,126.57v-8.09l62.62-26.3v9.7L60.85,122.54l50.39,20.55Z" transform="translate(-48.62 -92.18)"/><path class="cls-1" d="M179.56,141.62v9.66h-19v-6.74q-7.89,7.65-17.6,7.65a19.19,19.19,0,0,1-13.11-4.91,16.89,16.89,0,0,1,.34-25.37,21.13,21.13,0,0,1,14.26-5.08,27.34,27.34,0,0,1,15,4.68V116a20.38,20.38,0,0,0-.8-6.51A8.31,8.31,0,0,0,155,105.4a14.36,14.36,0,0,0-7.68-1.83q-8.17,0-11.83,6.52l-10.4-2.75q6.91-12.9,23.88-12.91a31.06,31.06,0,0,1,10.77,1.69,15.72,15.72,0,0,1,6.77,4.34,14.19,14.19,0,0,1,3,5.74,44.34,44.34,0,0,1,.77,9.83v25.59Zm-20.05-10.91q-7-5.49-14.22-5.48a11.08,11.08,0,0,0-7.54,2.62,8.6,8.6,0,0,0-3,6.8,8.82,8.82,0,0,0,2.65,6.52,9.85,9.85,0,0,0,7.23,2.62q7.89,0,14.91-6.62Z" transform="translate(-48.62 -92.18)"/><path class="cls-1" d="M188.76,92.18l62.62,26.3v8.09l-62.62,26.22v-9.7l50.39-20.55-50.39-20.66Z" transform="translate(-48.62 -92.18)"/></svg>