<svg id="Vrstva_1" data-name="Vrstva 1" xmlns="http://www.w3.org/2000/svg" viewBox="0 0 241 241"><defs><style>.cls-1{fill:#35f287;}</style></defs><title>view-icon</title><path class="cls-1" d="M154.5,26A120.5,120.5,0,1,0,275,146.5,120.5,120.5,0,0,0,154.5,26ZM114,128.83h-5.41L93.93,177.16H87.75l-15-48.33H67.26V122H84.85v6.83H79.7L91.05,165.5l11-36.67H96.9V122H114Zm19.58,0h-4.81v40.95h4.81v6.83H117.24v-6.83H122V128.83h-4.8V122h16.34Zm42.25,9.62h-5.51v-9.62h-19v16.25h16.57v6.83H151.29v17.87h19v-9.94h5.51v16.77h-37v-6.83h5.77V128.83H138.8V122h37Zm63.92-9.62-11.13,48.33h-6.38l-10-43.19-10,43.19H196l-11.36-48.33h-5.35V122h17.05v6.83H191l8.44,35.73,8.1-35.73h-5.3V122h20.47v6.83h-5.24l8.14,35.73,8.28-35.73H228.6V122H245v6.83Z" transform="translate(-34 -26)"/></svg>