<svg id="Vrstva_1" data-name="Vrstva 1" xmlns="http://www.w3.org/2000/svg" viewBox="0 0 250 250"><defs><style>.cls-1{fill:#35f287;}</style></defs><title>visit-icon</title><path class="cls-1" d="M499.88,375.25a125,125,0,1,0,125,125A125,125,0,0,0,499.88,375.25Zm-41,105.87h-6.6l-17.88,48.09h-7.54l-18.25-48.09h-6.73v-6.79h21.45v6.79H417l13.84,36.49,13.46-36.49H438v-6.79h20.86Zm22.26,0h-5.86v40.75h5.86v6.79H461.18v-6.79H467V481.12h-5.86v-6.79H481.1ZM518.74,525a17.2,17.2,0,0,1-12.13,4.53,19.43,19.43,0,0,1-13.36-5.35v4.49h-6.8V508.94h6.8v4.8q4.88,8.87,12.77,8.87a9.87,9.87,0,0,0,6.8-2.46,8.2,8.2,0,0,0,2.77-6.45c0-2.58-.75-4.43-2.26-5.57s-4.36-2.25-8.56-3.37a63.21,63.21,0,0,1-10.82-3.7,13.79,13.79,0,0,1-5.6-5,13.63,13.63,0,0,1-2.09-7.63,13.92,13.92,0,0,1,4.55-10.92,16.46,16.46,0,0,1,11.42-4.08,19.63,19.63,0,0,1,12.11,4.22v-3.64H521v16.49h-6.64v-3.79a13.11,13.11,0,0,0-11.52-6.29q-4.45,0-6.84,2.05a6.43,6.43,0,0,0-1.17,8.75,7.16,7.16,0,0,0,3.09,2.44,63.77,63.77,0,0,0,7.38,2.18,57.77,57.77,0,0,1,10.43,3.5,14.06,14.06,0,0,1,5.59,5.41,16.22,16.22,0,0,1,2.34,8.71A15,15,0,0,1,518.74,525Zm29.86-43.87h-5.86v40.75h5.86v6.79H528.68v-6.79h5.86V481.12h-5.86v-6.79H548.6ZM589.42,495V481.12H578.25v40.75h7.07v6.79H563.09v-6.79h7V481.12H558.84V495h-6.72V474.33h44V495Z" transform="translate(-374.88 -375.25)"/></svg>