<?xml version="1.0" ?><svg viewBox="0 0 64 64" xmlns="http://www.w3.org/2000/svg"><title/><g data-name="28-Calendar" id="_28-Calendar"><rect height="52" style="fill:#e3e3e3" width="62" x="1" y="6"/><rect height="10" style="fill:#ff5d54" width="50" x="7" y="21"/><polygon points="7 31 7 41 7 47 21 47 21 41 57 41 57 31 7 31" style="fill:#34c1ad"/><rect height="6" style="fill:#f5f5f5" width="36" x="21" y="41"/><rect height="6" rx="2" style="fill:#21abab" width="4" x="53" y="3"/><rect height="6" rx="2" style="fill:#21abab" width="4" x="39" y="3"/><rect height="6" rx="2" style="fill:#21abab" width="4" x="21" y="3"/><rect height="6" rx="2" style="fill:#21abab" width="4" x="7" y="3"/><path d="M55,6V4a1.972,1.972,0,0,1,.263-.973A1.905,1.905,0,0,0,55,3a2,2,0,0,0-2,2V7a1.993,1.993,0,0,0,3.737.973A1.993,1.993,0,0,1,55,6Z" style="fill:#13969d"/><path d="M41,6V4a1.972,1.972,0,0,1,.263-.973A1.905,1.905,0,0,0,41,3a2,2,0,0,0-2,2V7a1.993,1.993,0,0,0,3.737.973A1.993,1.993,0,0,1,41,6Z" style="fill:#13969d"/><path d="M23,6V4a1.972,1.972,0,0,1,.263-.973A1.905,1.905,0,0,0,23,3a2,2,0,0,0-2,2V7a1.993,1.993,0,0,0,3.737.973A1.993,1.993,0,0,1,23,6Z" style="fill:#13969d"/><path d="M9,6V4a1.972,1.972,0,0,1,.263-.973A1.905,1.905,0,0,0,9,3,2,2,0,0,0,7,5V7a1.993,1.993,0,0,0,3.737.973A1.993,1.993,0,0,1,9,6Z" style="fill:#13969d"/><path d="M55,9a2,2,0,0,1-2-2V6H52V8a2,2,0,0,0,3.82.82A1.99,1.99,0,0,1,55,9Z" style="fill:#bfbfbf"/><path d="M41,9a2,2,0,0,1-2-2V6H38V8a2,2,0,0,0,3.82.82A1.99,1.99,0,0,1,41,9Z" style="fill:#bfbfbf"/><path d="M23,9a2,2,0,0,1-2-2V6H20V8a2,2,0,0,0,3.82.82A1.99,1.99,0,0,1,23,9Z" style="fill:#bfbfbf"/><path d="M9,9A2,2,0,0,1,7,7V6H6V8a2,2,0,0,0,3.82.82A1.99,1.99,0,0,1,9,9Z" style="fill:#bfbfbf"/><rect height="3" style="fill:#bfbfbf" width="62" x="1" y="58"/><path d="M1,58v3H6a2,2,0,0,1,2-2H63V58Z" style="fill:#a3a3a3"/><polyline points="63 11 63 6 57 6" style="fill:none;stroke:#000;stroke-linejoin:round;stroke-width:2px"/><polyline points="7 6 1 6 1 58 63 58 63 17" style="fill:none;stroke:#000;stroke-linejoin:round;stroke-width:2px"/><polyline points="63 59 63 61 1 61 1 59" style="fill:none;stroke:#000;stroke-linejoin:round;stroke-width:2px"/><line style="fill:none;stroke:#000;stroke-linejoin:round;stroke-width:2px" x1="6" x2="15" y1="15" y2="15"/><line style="fill:none;stroke:#000;stroke-linejoin:round;stroke-width:2px" x1="6" x2="10" y1="12" y2="12"/><rect height="6" rx="2" style="fill:none;stroke:#000;stroke-linejoin:round;stroke-width:2px" width="4" x="7" y="3"/><rect height="6" rx="2" style="fill:none;stroke:#000;stroke-linejoin:round;stroke-width:2px" width="4" x="21" y="3"/><rect height="6" rx="2" style="fill:none;stroke:#000;stroke-linejoin:round;stroke-width:2px" width="4" x="39" y="3"/><rect height="6" rx="2" style="fill:none;stroke:#000;stroke-linejoin:round;stroke-width:2px" width="4" x="53" y="3"/><line style="fill:none;stroke:#000;stroke-linejoin:round;stroke-width:2px" x1="53" x2="43" y1="6" y2="6"/><line style="fill:none;stroke:#000;stroke-linejoin:round;stroke-width:2px" x1="39" x2="25" y1="6" y2="6"/><line style="fill:none;stroke:#000;stroke-linejoin:round;stroke-width:2px" x1="21" x2="11" y1="6" y2="6"/><line style="fill:none;stroke:#000;stroke-linejoin:round;stroke-width:2px" x1="12" x2="14" y1="18" y2="18"/><line style="fill:none;stroke:#000;stroke-linejoin:round;stroke-width:2px" x1="19" x2="21" y1="18" y2="18"/><line style="fill:none;stroke:#000;stroke-linejoin:round;stroke-width:2px" x1="26" x2="28" y1="18" y2="18"/><line style="fill:none;stroke:#000;stroke-linejoin:round;stroke-width:2px" x1="33" x2="35" y1="18" y2="18"/><line style="fill:none;stroke:#000;stroke-linejoin:round;stroke-width:2px" x1="40" x2="42" y1="18" y2="18"/><line style="fill:none;stroke:#000;stroke-linejoin:round;stroke-width:2px" x1="47" x2="49" y1="18" y2="18"/><line style="fill:none;stroke:#000;stroke-linejoin:round;stroke-width:2px" x1="55" x2="57" y1="18" y2="18"/><rect height="26" style="fill:none;stroke:#000;stroke-linejoin:round;stroke-width:2px" width="50" x="7" y="21"/><line style="fill:none;stroke:#000;stroke-linejoin:round;stroke-width:2px" x1="14" x2="14" y1="21" y2="46"/><line style="fill:none;stroke:#000;stroke-linejoin:round;stroke-width:2px" x1="21" x2="21" y1="21" y2="46"/><line style="fill:none;stroke:#000;stroke-linejoin:round;stroke-width:2px" x1="28" x2="28" y1="21" y2="41"/><line style="fill:none;stroke:#000;stroke-linejoin:round;stroke-width:2px" x1="35" x2="35" y1="21" y2="41"/><line style="fill:none;stroke:#000;stroke-linejoin:round;stroke-width:2px" x1="42" x2="42" y1="21" y2="41"/><line style="fill:none;stroke:#000;stroke-linejoin:round;stroke-width:2px" x1="49" x2="49" y1="21" y2="41"/><line style="fill:none;stroke:#000;stroke-linejoin:round;stroke-width:2px" x1="7" x2="57" y1="26" y2="26"/><line style="fill:none;stroke:#000;stroke-linejoin:round;stroke-width:2px" x1="7" x2="57" y1="31" y2="31"/><line style="fill:none;stroke:#000;stroke-linejoin:round;stroke-width:2px" x1="7" x2="57" y1="36" y2="36"/><line style="fill:none;stroke:#000;stroke-linejoin:round;stroke-width:2px" x1="7" x2="57" y1="41" y2="41"/><line style="fill:none;stroke:#000;stroke-linejoin:round;stroke-width:2px" x1="14" x2="7" y1="21" y2="26"/><line style="fill:none;stroke:#000;stroke-linejoin:round;stroke-width:2px" x1="21" x2="14" y1="21" y2="26"/><line style="fill:none;stroke:#000;stroke-linejoin:round;stroke-width:2px" x1="28" x2="21" y1="21" y2="26"/><line style="fill:none;stroke:#000;stroke-linejoin:round;stroke-width:2px" x1="35" x2="28" y1="21" y2="26"/><line style="fill:none;stroke:#000;stroke-linejoin:round;stroke-width:2px" x1="42" x2="35" y1="21" y2="26"/><line style="fill:none;stroke:#000;stroke-linejoin:round;stroke-width:2px" x1="49" x2="42" y1="21" y2="26"/><line style="fill:none;stroke:#000;stroke-linejoin:round;stroke-width:2px" x1="57" x2="49" y1="21" y2="26"/><line style="fill:none;stroke:#000;stroke-linejoin:round;stroke-width:2px" x1="14" x2="7" y1="26" y2="31"/><line style="fill:none;stroke:#000;stroke-linejoin:round;stroke-width:2px" x1="21" x2="14" y1="26" y2="31"/><line style="fill:none;stroke:#000;stroke-linejoin:round;stroke-width:2px" x1="28" x2="21" y1="26" y2="31"/><line style="fill:none;stroke:#000;stroke-linejoin:round;stroke-width:2px" x1="35" x2="28" y1="26" y2="31"/><line style="fill:none;stroke:#000;stroke-linejoin:round;stroke-width:2px" x1="42" x2="35" y1="26" y2="31"/><line style="fill:none;stroke:#000;stroke-linejoin:round;stroke-width:2px" x1="49" x2="42" y1="26" y2="31"/><line style="fill:none;stroke:#000;stroke-linejoin:round;stroke-width:2px" x1="57" x2="49" y1="26" y2="31"/><line style="fill:none;stroke:#000;stroke-linejoin:round;stroke-width:2px" x1="28" x2="28" y1="49" y2="56"/><line style="fill:none;stroke:#000;stroke-linejoin:round;stroke-width:2px" x1="34" x2="34" y1="56" y2="49"/><polyline points="31 49 31 53 36 53" style="fill:none;stroke:#000;stroke-linejoin:round;stroke-width:2px"/><path d="M40,50v5h1.828A2.171,2.171,0,0,0,44,52.828v-.656A2.171,2.171,0,0,0,41.828,50Z" style="fill:none;stroke:#000;stroke-linejoin:round;stroke-width:2px"/><path d="M47,56V52a2,2,0,0,1,2-2h0a2,2,0,0,1,2,2v4" style="fill:none;stroke:#000;stroke-linejoin:round;stroke-width:2px"/><line style="fill:none;stroke:#000;stroke-linejoin:round;stroke-width:2px" x1="47" x2="51" y1="53" y2="53"/><path d="M53,49v1a2,2,0,0,0,2,2h0a2,2,0,0,0,2-2V49" style="fill:none;stroke:#000;stroke-linejoin:round;stroke-width:2px"/><line style="fill:none;stroke:#000;stroke-linejoin:round;stroke-width:2px" x1="55" x2="55" y1="52" y2="56"/><line style="fill:none;stroke:#000;stroke-linejoin:round;stroke-width:2px" x1="63" x2="63" y1="13" y2="15"/></g></svg>