<?xml version="1.0" ?><svg id="Layer_1" style="enable-background:new 0 0 128 128;" version="1.1" viewBox="0 0 128 128" xml:space="preserve" xmlns="http://www.w3.org/2000/svg" xmlns:xlink="http://www.w3.org/1999/xlink"><style type="text/css">
	.st0{fill-rule:evenodd;clip-rule:evenodd;}
	.st1{fill-rule:evenodd;clip-rule:evenodd;fill:#7ACED7;}
</style><path class="st0" d="M46.5,92.7l-32.9,32.9c-3.1,3.1-8.2,3.1-11.3,0c-3.1-3.1-3.1-8.2,0-11.3l32.9-32.9  c2.6-2.6,6.7-3,9.7-1.2l10.4-10.4c-6.7-7.4-10.8-17.3-10.8-28.1C44.5,18.7,63.2,0,86.3,0C109.3,0,128,18.7,128,41.8  s-18.7,41.7-41.7,41.7c-10.8,0-20.7-4.1-28.1-10.8L47.8,83C49.6,86.1,49.2,90.1,46.5,92.7L46.5,92.7z M86.3,4  C65.4,4,48.5,20.9,48.5,41.8c0,10.4,4.2,19.9,11.1,26.7c6.8,6.8,16.3,11.1,26.7,11.1c20.8,0,37.7-16.9,37.7-37.7S107.1,4,86.3,4  L86.3,4z M43.7,89.9c1.6-1.6,1.6-4.1,0-5.7s-4.1-1.6-5.7,0L5.2,117.2c-1.6,1.6-1.6,4.1,0,5.7c1.6,1.6,4.1,1.6,5.7,0L43.7,89.9  L43.7,89.9z M69.5,41.8c0-9.2,7.5-16.6,16.7-16.6v-4c-11.4,0-20.7,9.3-20.7,20.7H69.5z" id="XMLID_13_"/><path class="st1" d="M43.7,89.9l-32.9,32.9c-1.6,1.6-4.1,1.6-5.7,0c-1.6-1.6-1.6-4.1,0-5.7l32.9-32.9  c1.6-1.6,4.1-1.6,5.7,0S45.3,88.4,43.7,89.9L43.7,89.9z M69.5,41.8c0-9.2,7.5-16.6,16.7-16.6v-4c-11.4,0-20.7,9.3-20.7,20.7H69.5  L69.5,41.8z M86.3,4C107.1,4,124,20.9,124,41.8s-16.9,37.7-37.7,37.7c-20.8,0-37.7-16.9-37.7-37.7S65.4,4,86.3,4z" id="XMLID_9_"/></svg>