<svg width="24" height="24" xmlns="http://www.w3.org/2000/svg">

 <g>
  <title>background</title>
  <rect fill="none" id="canvas_background" height="402" width="582" y="-1" x="-1"/>
 </g>
 <g>
  <title>Layer 1</title>
  <path id="svg_1" fill-rule="evenodd" fill="#03000f" d="m22,4c0,1.29974 -0.8273,2.88901 -1.613,4.1053c-0.6686,1.035 -2.1054,1.035 -2.774,0c-0.7857,-1.21629 -1.613,-2.80556 -1.613,-4.1053c0,-1.65685 1.3431,-3 3,-3c1.6569,0 3,1.34315 3,3zm-14,14c0,1.2997 -0.82731,2.889 -1.61303,4.1053c-0.6686,1.035 -2.10534,1.035 -2.77394,0c-0.78572,-1.2163 -1.61303,-2.8056 -1.61303,-4.1053c0,-1.6569 1.34315,-3 3,-3c1.65685,0 3,1.3431 3,3zm2.1,-13c-2.26437,0 -4.1,1.83563 -4.1,4.1c0,2.2644 1.83563,4.1 4.1,4.1l6,0c1.0493,0 1.9,0.8507 1.9,1.9c0,1.0493 -0.8507,1.9 -1.9,1.9l-5.1,0c-0.5523,0 -1,0.4477 -1,1c0,0.5523 0.4477,1 1,1l5.1,0c2.1539,0 3.9,-1.7461 3.9,-3.9c0,-2.1539 -1.7461,-3.9 -3.9,-3.9l-6,0c-1.1598,0 -2.1,-0.9402 -2.1,-2.1c0,-1.1598 0.9402,-2.1 2.1,-2.1l3.9,0c0.5523,0 1,-0.44772 1,-1c0,-0.55228 -0.4477,-1 -1,-1l-3.9,0z" clip-rule="evenodd"/>
 </g>
</svg>