<svg width="512" height="512" xmlns="http://www.w3.org/2000/svg">

 <g>
  <title>background</title>
  <rect fill="none" id="canvas_background" height="402" width="582" y="-1" x="-1"/>
 </g>
 <g>
  <title>Layer 1</title>
  <path stroke="#f8f9fa" fill="#f8f9fa" id="svg_1" d="m288,192l0,-38.1c0,-17.2 3.8,-25.9 30.5,-25.9l33.5,0l0,-64l-55.9,0c-68.5,0 -91.1,31.4 -91.1,85.3l0,42.7l-45,0l0,64l45,0l0,192l83,0l0,-192l56.4,0l7.6,-64l-64,0zm42.2,48l-41.1,0l-17.1,0l0,15.5l0,176.5l-51,0l0,-176.5l0,-15.5l-14.9,0l-30.1,0l0,-32l30.1,0l14.9,0l0,-16.5l0,-42.2c0,-24.5 5.4,-41.2 15.5,-51.8c11.2,-12 31.1,-17.5 59.6,-17.5l39.9,0l0,32l-17.5,0c-12,0 -27.5,1.1 -37.1,11.7c-8.1,9 -9.4,20.1 -9.4,30.1l0,37.6l0,16.6l17.1,0l44.9,0l-3.8,32z"/>
 </g>
</svg>