<svg id="Vrstva_1" data-name="Vrstva 1" xmlns="http://www.w3.org/2000/svg" viewBox="0 0 38.54 43.98"><defs><style>.cls-1{fill:#1632c9;}</style></defs><title>cross-logo</title><path class="cls-1" d="M59.12,60.88,48.62,48.23,31.89,28.08l-3.82-4.6a3,3,0,0,0-4.24,0,3.06,3.06,0,0,0,0,4.24l10.5,12.65L51.06,60.52l3.82,4.6a3,3,0,0,0,4.24,0,3.06,3.06,0,0,0,0-4.24Z" transform="translate(-21.44 -22.01)"/><line class="cls-1" x1="35.56" y1="40.99" x2="4.51" y2="3.59"/><path class="cls-1" d="M53.34,22.88,42.83,35.53,26.11,55.68l-3.83,4.6a3.09,3.09,0,0,0,0,4.24,3,3,0,0,0,4.25,0L37,51.87,53.76,31.72l3.82-4.6a3.09,3.09,0,0,0,0-4.24,3,3,0,0,0-4.24,0Z" transform="translate(-21.44 -22.01)"/><line class="cls-1" x1="34.02" y1="2.99" x2="2.97" y2="40.39"/></svg>