<svg width="32" height="32" xmlns="http://www.w3.org/2000/svg">

 <title/>
 <g>
  <title>background</title>
  <rect fill="none" id="canvas_background" height="402" width="582" y="-1" x="-1"/>
 </g>
 <g>
  <title>Layer 1</title>
  <path fill="#ffffff" id="svg_1" d="m11,22a10,10 0 1 1 10,-10a10,10 0 0 1 -10,10zm0,-18a8,8 0 1 0 8,8a8,8 0 0 0 -8,-8z" class="cls-1"/>
  <path fill="#ffffff" id="svg_2" d="m28,29.74a3,3 0 0 1 -1.93,-0.7l-6.13,-5.14a3,3 0 0 1 3.86,-4.6l6.13,5.14a3,3 0 0 1 -1.93,5.3zm-6.13,-9.14l-0.09,0a1,1 0 0 0 -0.55,1.77l6.13,5.14a1,1 0 0 0 1.41,-0.12a1,1 0 0 0 0.23,-0.73a1,1 0 0 0 -0.36,-0.68l-6.13,-5.15a1,1 0 0 0 -0.64,-0.23z" class="cls-1"/>
  <path fill="#ffffff" id="svg_3" d="m20,21a1,1 0 0 1 -0.64,-0.23l-2.36,-1.95a1,1 0 0 1 1.28,-1.54l2.34,1.95a1,1 0 0 1 0.13,1.41a1,1 0 0 1 -0.75,0.36z" class="cls-1"/>
 </g>
</svg>