<svg width="48" height="48" xmlns="http://www.w3.org/2000/svg">

 <g>
  <title>background</title>
  <rect fill="none" id="canvas_background" height="402" width="582" y="-1" x="-1"/>
 </g>
 <g>
  <title>Layer 1</title>
  <path fill="#ffffff" id="svg_3" d="m44,39.89882l-40,0c-2.206,0 -4,-1.794 -4,-4l0,-24c0,-2.206 1.794,-4 4,-4l40,0c2.206,0 4,1.794 4,4l0,24c0,2.206 -1.794,4 -4,4zm-40,-30c-1.103,0 -2,0.897 -2,2l0,24c0,1.103 0.897,2 2,2l40,0c1.103,0 2,-0.897 2,-2l0,-24c0,-1.103 -0.897,-2 -2,-2l-40,0z"/>
  <path fill="#ffffff" id="svg_5" d="m24,29.191l-17.543,-11.351c-0.464,-0.301 -0.597,-0.919 -0.297,-1.383s0.919,-0.596 1.383,-0.297l16.457,10.649l16.457,-10.649c0.464,-0.299 1.083,-0.167 1.383,0.297s0.167,1.082 -0.297,1.383l-17.543,11.351z"/>
  <path fill="#ffffff" id="svg_7" d="m6.001,34c-0.323,0 -0.641,-0.156 -0.833,-0.445c-0.307,-0.46 -0.183,-1.08 0.277,-1.387l9,-6c0.46,-0.307 1.081,-0.183 1.387,0.277c0.307,0.46 0.183,1.08 -0.277,1.387l-9,6c-0.171,0.113 -0.364,0.168 -0.554,0.168z"/>
  <path fill="#ffffff" id="svg_9" d="m42.10018,34c-0.19,0 -0.383,-0.055 -0.554,-0.168l-9,-6c-0.46,-0.307 -0.584,-0.927 -0.277,-1.387c0.306,-0.46 0.926,-0.584 1.387,-0.277l9,6c0.46,0.307 0.584,0.927 0.277,1.387c-0.192,0.289 -0.51,0.445 -0.833,0.445z"/>
 </g>
</svg>