<?xml version="1.0" encoding="iso-8859-1"?>
<!-- Generator: Adobe Illustrator 19.0.0, SVG Export Plug-In . SVG Version: 6.00 Build 0)  -->
<svg version="1.1" id="Capa_1" xmlns="http://www.w3.org/2000/svg" xmlns:xlink="http://www.w3.org/1999/xlink" x="0px" y="0px"
	 viewBox="0 0 512 512" style="enable-background:new 0 0 512 512;" xml:space="preserve">
<g>
	<g>
		<path d="M457.847,314.265l-9.047-6.841l-9.047,6.841c-11.352,8.584-24.891,13.121-39.153,13.121
			c-14.262,0-27.801-4.537-39.152-13.121l-9.047-6.841l-9.047,6.841c-11.353,8.584-24.892,13.121-39.153,13.121
			c-1.072,0-2.137-0.034-3.2-0.085V177.43c12.768-4.526,22.903-14.662,27.43-27.43H377c36.219,0,66.523-25.81,73.493-60H467
			c24.813,0,45-20.187,45-45S491.813,0,467,0H45C20.187,0,0,20.187,0,45s20.187,45,45,45h16.507c6.97,34.19,37.274,60,73.493,60
			h48.57c4.526,12.768,14.662,22.903,27.43,27.43v149.871c-1.063,0.051-2.129,0.085-3.2,0.085c-14.262,0-27.801-4.537-39.153-13.121
			l-9.047-6.841l-9.047,6.841c-11.352,8.584-24.891,13.121-39.152,13.121c-14.263,0-27.802-4.537-39.153-13.121l-9.047-6.841
			l-9.047,6.841C42.802,322.849,29.263,327.386,15,327.386H0V512h512V327.386h-15C482.737,327.386,469.198,322.849,457.847,314.265z
			 M135,120c-24.813,0-45-20.187-45-45V60H45c-8.271,0-15-6.729-15-15s6.729-15,15-15h422c8.271,0,15,6.729,15,15s-6.729,15-15,15
			h-45v15c0,24.813-20.187,45-45,45h-76v15c0,8.271-6.729,15-15,15h-15v168.265c-2.041-1.219-4.031-2.547-5.953-4L256,307.424
			l-9.047,6.841c-1.922,1.454-3.912,2.781-5.953,4.001V150h-15c-8.271,0-15-6.729-15-15v-15H135z M481.998,482L481.998,482H30
			v-40.408c11.736-1.851,22.944-5.871,33.2-11.94c14.554,8.612,31.02,13.119,48.2,13.119s33.646-4.507,48.199-13.119
			c14.555,8.612,31.021,13.119,48.2,13.119c17.181,0,33.646-4.507,48.2-13.119c14.554,8.612,31.02,13.119,48.2,13.119
			c17.18,0,33.646-4.507,48.2-13.119c14.554,8.612,31.02,13.119,48.199,13.119c17.181,0,33.646-4.507,48.2-13.119
			c10.257,6.069,21.465,10.089,33.2,11.94V482z M481.998,411.032L481.998,411.032c-8.692-2.047-16.874-5.878-24.153-11.382
			l-9.047-6.841l-9.047,6.841c-11.352,8.584-24.891,13.121-39.153,13.121c-14.262,0-27.801-4.537-39.152-13.121l-9.047-6.841
			l-9.047,6.841c-11.353,8.584-24.892,13.121-39.153,13.121c-14.263,0-27.802-4.537-39.153-13.121L256,392.809l-9.047,6.841
			c-11.352,8.584-24.891,13.121-39.153,13.121c-14.262,0-27.801-4.537-39.153-13.121l-9.047-6.841l-9.047,6.841
			c-11.352,8.584-24.891,13.121-39.152,13.121c-14.263,0-27.802-4.537-39.153-13.121l-9.047-6.841l-9.047,6.841
			c-7.279,5.505-15.461,9.335-24.153,11.382v-54.814c11.736-1.852,22.941-5.881,33.199-11.951
			c14.554,8.612,31.02,13.119,48.2,13.119s33.646-4.507,48.199-13.119c14.555,8.612,31.021,13.119,48.2,13.119
			c17.181,0,33.646-4.507,48.2-13.119c14.555,8.612,31.021,13.119,48.2,13.119c17.179,0,33.646-4.507,48.2-13.119
			c14.554,8.612,31.02,13.119,48.199,13.119c17.181,0,33.646-4.507,48.2-13.119c10.258,6.07,21.463,10.1,33.2,11.951V411.032z"/>
	</g>
</g>
<g>
</g>
<g>
</g>
<g>
</g>
<g>
</g>
<g>
</g>
<g>
</g>
<g>
</g>
<g>
</g>
<g>
</g>
<g>
</g>
<g>
</g>
<g>
</g>
<g>
</g>
<g>
</g>
<g>
</g>
</svg>
