<svg id="Capa_1" enable-background="new 0 0 512 512" height="512" viewBox="0 0 512 512" width="512" xmlns="http://www.w3.org/2000/svg"><g><path d="m44.15 344.751h-36.65c-4.142 0-7.5 3.357-7.5 7.5s3.358 7.5 7.5 7.5h36.65c4.142 0 7.5-3.357 7.5-7.5s-3.358-7.5-7.5-7.5zm68.839 146.013h-51.65c-4.142 0-7.5 3.357-7.5 7.5s3.358 7.5 7.5 7.5h51.65c4.142 0 7.5-3.357 7.5-7.5s-3.358-7.5-7.5-7.5zm240-41.013h-51.65c-4.142 0-7.5 3.357-7.5 7.5s3.358 7.5 7.5 7.5h51.65c4.142 0 7.5-3.357 7.5-7.5s-3.358-7.5-7.5-7.5zm105-75h-36.65c-4.142 0-7.5 3.357-7.5 7.5s3.358 7.5 7.5 7.5h36.65c4.142 0 7.5-3.357 7.5-7.5s-3.358-7.5-7.5-7.5zm46.511-170.487h-27.936l-61.8-96.557c-6.372-10.099-21.345-10.643-28.578-1.271-.035.045-.069.09-.102.136l-15.552 21.08-42.013-46.525c-7.95-9.096-23.069-7.169-28.578 3.466l-11.651 22.149-56.509-92.153c-3.249-5.301-8.918-8.424-15.123-8.352-6.219.072-11.798 3.325-14.924 8.701l-28.804 49.533-2.004-3.388c-6.226-10.717-21.994-11.385-29.177-1.438l-44.965 61.34c-2.449 3.341-1.726 8.034 1.615 10.483 3.34 2.447 8.034 1.726 10.483-1.614l44.965-61.341c1.247-1.541 3.09-1.465 4.168.206l8.562 14.476c.001.002.003.005.004.007l40.139 67.867c2.129 3.601 6.758 4.715 10.273 2.637 3.565-2.108 4.746-6.708 2.638-10.273l-37.952-64.168 33.021-56.785c1.122-1.739 3.148-1.763 4.292-.05l78.945 128.742c2.185 3.565 6.83 4.609 10.314 2.473 3.531-2.165 4.639-6.783 2.473-10.314l-13.313-21.711 15.802-30.041c1.003-1.7 2.734-1.907 4.127-.447l48.181 53.357c.002.002.003.004.004.005l9.675 10.814c2.771 3.094 7.512 3.342 10.59.589 3.087-2.762 3.351-7.503.589-10.591l-5.609-6.269 17.314-23.47c1.243-1.401 2.95-1.338 4.044.23l56.622 88.467h-404.413l33.826-46.145c2.449-3.341 1.726-8.034-1.615-10.483s-8.034-1.726-10.483 1.614l-40.328 55.014h-28.237c-4.142 0-7.5 3.357-7.5 7.5s3.358 7.5 7.5 7.5h27.091l90.395 211.257c5.527 13.279 25.22 14.101 31.687 1.051l16.334-32.108 33.057 80.363c5.467 13.703 25.98 14.385 32.096.628l72.79-158.987 52.744 36.351c7.882 5.489 19.271 3.31 24.539-4.771l36.532-55.372c2.281-3.457 1.328-8.109-2.13-10.39-3.458-2.284-8.109-1.328-10.391 2.13l-36.532 55.372c-.939 1.312-2.139 1.548-3.506.681-21.065-13.371-60.878-41.966-78.605-54.268-3.404-2.362-8.076-1.517-10.438 1.884-2.362 3.402-1.519 8.076 1.883 10.438l13.372 9.283-73.897 161.404c-1.075 2.141-3.594 2.091-4.585-.09l-37.999-92.377 7.804-16.209c1.797-3.732.229-8.215-3.504-10.012-3.731-1.797-8.214-.229-10.011 3.504l-9.224 19.158-23.7 46.586c-1.133 2.04-3.531 1.954-4.526-.15l-87.869-205.356h407.621l-27.045 40.993c-2.281 3.457-1.328 8.109 2.13 10.391 3.425 2.26 8.087 1.36 10.391-2.131l32.495-49.253h28.001c4.142 0 7.5-3.357 7.5-7.5s-3.358-7.5-7.5-7.5z"/></g></svg>