<svg id="Capa_1" enable-background="new 0 0 512 512" height="512" viewBox="0 0 512 512" width="512" xmlns="http://www.w3.org/2000/svg"><g><path d="m504.5 415.641h-1.821l-41.381-134.928c-1.135-3.7-3.659-6.704-7.108-8.46-3.448-1.755-7.364-2.028-11.025-.767l-27.934 9.624-54.017-108.802c-1.712-3.446-5.015-5.766-8.837-6.206-3.823-.444-7.565 1.067-10.017 4.033l-47.044 56.948c-.431.521-.788 1.098-1.065 1.715l-15.47 34.586c-1.691 3.781.003 8.217 3.784 9.908 3.781 1.692 8.217-.003 9.909-3.784l15.054-33.657 42.777-51.782 28.488 57.382-6.36.238c-3.128.117-5.854 2.164-6.839 5.135l-11.64 35.123c-1.303 3.932.828 8.176 4.76 9.479.783.26 1.578.383 2.36.383 3.146 0 6.075-1.994 7.118-5.143l10.002-30.183 7.914-.296 16.018 32.264c3.151 6.347 10.582 9.392 17.279 7.084l27.808-9.581 39.773 129.686h-332.074l34.723-63.238 5.46 7.937 6.786 23.48c.949 3.284 3.946 5.419 7.201 5.419.689 0 1.391-.096 2.086-.297 3.98-1.15 6.273-5.308 5.123-9.288l-7.123-24.647c-.224-.773-.57-1.505-1.026-2.168l-10.426-15.155 11.478-20.905 39.57 21.073c2.831 1.509 6.182 1.732 9.191.615 2.932-1.09 5.277-3.357 6.469-6.242l16.797-37.553c1.691-3.781-.003-8.218-3.784-9.909-3.782-1.693-8.217.002-9.909 3.784l-15.281 34.165-39.286-20.922c-5.398-2.875-12.181-.852-15.123 4.507l-60.038 109.345h-34.295c-4.143 0-7.5 3.358-7.5 7.5s3.357 7.5 7.5 7.5h400.995c4.143 0 7.5-3.358 7.5-7.5s-3.357-7.5-7.5-7.5z"/><path d="m81.005 423.141c0-4.142-3.357-7.5-7.5-7.5h-66.005c-4.143 0-7.5 3.358-7.5 7.5s3.357 7.5 7.5 7.5h66.005c4.142 0 7.5-3.358 7.5-7.5z"/><path d="m101.666 340.086c0-4.142-3.357-7.5-7.5-7.5h-17.629c-5.792 0-10.505-4.713-10.505-10.505s4.713-10.505 10.505-10.505h57.066c16.817 0 30.499-13.682 30.499-30.5 0-16.817-13.682-30.499-30.499-30.499h-62.27c-8.547 0-15.5-6.953-15.5-15.499s6.953-15.499 15.5-15.499h147.99c16.817 0 30.5-13.682 30.5-30.499s-13.683-30.499-30.5-30.499h-138.943c-14.948 0-27.11-12.162-27.11-27.11s12.162-27.11 27.11-27.11h350.604c23.22 0 42.11-18.891 42.11-42.11s-18.891-42.11-42.11-42.11h-193.984c-4.143 0-7.5 3.358-7.5 7.5s3.357 7.5 7.5 7.5h193.983c14.948 0 27.11 12.162 27.11 27.11s-12.162 27.11-27.11 27.11h-350.603c-23.22 0-42.11 18.891-42.11 42.11s18.891 42.11 42.11 42.11h138.943c8.547 0 15.5 6.953 15.5 15.499s-6.953 15.499-15.5 15.499h-147.99c-16.817 0-30.5 13.682-30.5 30.499s13.683 30.499 30.5 30.499h62.271c8.546 0 15.499 6.953 15.499 15.499s-6.953 15.5-15.499 15.5h-57.067c-14.064 0-25.505 11.442-25.505 25.505 0 14.064 11.441 25.505 25.505 25.505h17.629c4.143 0 7.5-3.358 7.5-7.5z"/><path d="m85.148 463.544h-36.815c-4.143 0-7.5 3.358-7.5 7.5s3.357 7.5 7.5 7.5h36.815c4.143 0 7.5-3.358 7.5-7.5s-3.357-7.5-7.5-7.5z"/><path d="m327.968 453.595h-36.815c-4.143 0-7.5 3.358-7.5 7.5s3.357 7.5 7.5 7.5h36.815c4.143 0 7.5-3.358 7.5-7.5s-3.358-7.5-7.5-7.5z"/><path d="m417.647 476.862h-36.815c-4.142 0-7.5 3.358-7.5 7.5s3.358 7.5 7.5 7.5h36.815c4.143 0 7.5-3.358 7.5-7.5s-3.357-7.5-7.5-7.5z"/></g></svg>