<svg width="32" height="32" xmlns="http://www.w3.org/2000/svg">
 <title/>

 <g>
  <title>background</title>
  <rect fill="none" id="canvas_background" height="402" width="582" y="-1" x="-1"/>
 </g>
 <g>
  <title>Layer 1</title>
  <path fill="#ffffff" id="svg_1" d="m16,1a15,15 0 1 1 -15,15a15,15 0 0 1 15,-15zm0,28a13,13 0 1 0 -13,-13a13,13 0 0 0 13,13z"/>
  <path fill="#ffffff" id="svg_2" d="m10.41,12.13l5.59,5.58l5.59,-5.58a1,1 0 0 1 1.41,0l0,0a1,1 0 0 1 0,1.41l-6.36,6.36a0.91,0.91 0 0 1 -1.28,0l-6.36,-6.36a1,1 0 0 1 0,-1.41l0,0a1,1 0 0 1 1.41,0z"/>
 </g>
</svg>