<svg width="48" height="48.00004" xmlns="http://www.w3.org/2000/svg">

 <g>
  <title>background</title>
  <rect fill="none" id="canvas_background" height="402" width="582" y="-1" x="-1"/>
 </g>
 <g>
  <title>Layer 1</title>
  <polygon id="svg_2" fill="none" points="20.7882,25.72851 26.37017,25.72851 27.35431,20.94238 21.77191,20.94238  "/>
  <path id="svg_3" fill="#ffffff" d="m35.41821,18.33691c-0.24561,-0.30176 -0.61035,-0.46777 -1.02734,-0.46777l-3.31427,0l0.91943,-4.47107c0.08643,-0.41992 -0.00635,-0.83594 -0.25488,-1.14062c-0.24609,-0.30078 -0.61084,-0.4668 -1.02783,-0.4668c-0.82373,0 -1.60107,0.64355 -1.77002,1.4668l-0.24982,1.21472c-0.00818,0.03046 -0.02136,0.05939 -0.02771,0.09033l-0.67944,3.30664l-5.57886,0l0.91943,-4.47107c0.08643,-0.41992 -0.00635,-0.83594 -0.25488,-1.14062c-0.24609,-0.30078 -0.61084,-0.4668 -1.02783,-0.4668c-0.82373,0 -1.60107,0.64355 -1.77002,1.4668l-0.26007,1.26471c-0.00317,0.01373 -0.00952,0.02655 -0.01239,0.04034l-0.67987,3.30664l-3.6087,0c-0.82373,0 -1.60156,0.64355 -1.77051,1.46582c-0.08643,0.4209 0.00684,0.83594 0.25537,1.14062c0.24609,0.30176 0.61084,0.4668 1.02734,0.4668l3.4649,0l-0.98413,4.78613l-3.6087,0c-0.82373,0 -1.60156,0.64355 -1.77051,1.4668c-0.08643,0.41895 0.00635,0.83496 0.25439,1.13867c0.24609,0.30176 0.61133,0.46777 1.02832,0.46777l3.4649,0l-0.92438,4.49512c-0.08643,0.41992 0.00635,0.83594 0.25488,1.14062c0.24561,0.30078 0.61084,0.4668 1.02734,0.4668c0.82373,0 1.60156,-0.64355 1.77051,-1.4668l0.95331,-4.63574l5.5824,0l-0.92438,4.49512c-0.08643,0.41992 0.00635,0.83594 0.25488,1.14062c0.24609,0.30078 0.61084,0.4668 1.02783,0.4668c0.82373,0 1.60107,-0.64355 1.77002,-1.4668l0.95331,-4.63574l3.46661,0c0.82373,0 1.60156,-0.64355 1.77051,-1.46582c0.08838,-0.42871 -0.00098,-0.83398 -0.25146,-1.1416c-0.24512,-0.30078 -0.61133,-0.46582 -1.03076,-0.46582l-3.32288,0l0.9837,-4.78613l3.46661,0c0.82373,0 1.60156,-0.64355 1.77051,-1.4668c0.08645,-0.41894 -0.00633,-0.83496 -0.25486,-1.13867zm-14.63001,7.3916l0.9837,-4.78613l5.5824,0l-0.98413,4.78613l-5.58197,0z"/>
 </g>
</svg>