<svg width="100.4" height="100.4" xmlns="http://www.w3.org/2000/svg">

 <g>
  <title>background</title>
  <rect fill="none" id="canvas_background" height="402" width="582" y="-1" x="-1"/>
 </g>
 <g>
  <title>Layer 1</title>
  <path fill="#ffffff" id="svg_2" d="m69.3,8.6l-41.3,0c-5.3,0 -9.7,4.3 -9.7,9.6l0,66.2c0,5.3 4.3,9.6 9.7,9.6l41.3,0c5.3,0 9.7,-4.3 9.7,-9.6l0,-66.2c0,-5.3 -4.3,-9.6 -9.7,-9.6zm6.7,75.8c0,3.7 -3,6.6 -6.7,6.6l-41.3,0c-3.7,0 -6.7,-3 -6.7,-6.6l0,-66.2c0,-3.7 3,-6.6 6.7,-6.6l41.3,0c3.7,0 6.7,3 6.7,6.6l0,66.2z"/>
  <path fill="#ffffff" id="svg_3" d="m60.9,18.1l-24.7,0c-0.8,0 -1.5,0.7 -1.5,1.5s0.7,1.5 1.5,1.5l24.7,0c0.8,0 1.5,-0.7 1.5,-1.5s-0.7,-1.5 -1.5,-1.5z"/>
  <path fill="#ffffff" id="svg_4" d="m48.6,75.4c-2.8,0 -5,2.3 -5,5c0,1.3 0.5,2.6 1.5,3.5c0.9,0.9 2.2,1.4 3.5,1.4c0,0 0,0 0,0c2.8,0 5,-2.3 5,-5c0,-2.7 -2.2,-4.9 -5,-4.9zm0.1,7c0,0 0,0 0,0c-0.5,0 -1,-0.2 -1.4,-0.6c-0.4,-0.4 -0.6,-0.9 -0.6,-1.4c0,-1.1 0.9,-2 2,-2c0,0 0,0 0,0c1.1,0 2,0.9 2,2c0,1.1 -0.9,2 -2,2z"/>
 </g>
</svg>